M48
; DRILL file KiCad 10.0.3 date 2026-07-30T21:35:02
; FORMAT={-:-/ absolute / metric / decimal}
; #@! TF.CreationDate,2026-07-30T21:35:02-05:00
; #@! TF.GenerationSoftware,Kicad,Pcbnew,10.0.3
; #@! TF.FileFunction,Plated,1,2,PTH
FMAT,2
METRIC
; #@! TA.AperFunction,Plated,PTH,ViaDrill
T1C0.300
; #@! TA.AperFunction,Plated,PTH,ComponentDrill
T2C0.750
; #@! TA.AperFunction,Plated,PTH,ComponentDrill
T3C0.800
; #@! TA.AperFunction,Plated,PTH,ComponentDrill
T4C0.840
; #@! TA.AperFunction,Plated,PTH,ComponentDrill
T5C0.900
; #@! TA.AperFunction,Plated,PTH,ComponentDrill
T6C1.000
; #@! TA.AperFunction,Plated,PTH,ComponentDrill
T7C1.100
; #@! TA.AperFunction,Plated,PTH,ComponentDrill
T8C1.290
; #@! TA.AperFunction,Plated,PTH,ComponentDrill
T9C1.300
; #@! TA.AperFunction,Plated,PTH,ComponentDrill
T10C1.320
%
G90
G05
T1
X106.0Y-66.0
X107.5Y-64.4
X139.0Y-65.0
X141.0Y-65.0
T2
X131.23Y-76.36
X132.5Y-76.36
X133.77Y-76.36
T3
X114.69Y-76.0
X124.85Y-76.0
T4
X83.6Y-74.88
X83.6Y-90.12
X86.14Y-74.88
X86.14Y-90.12
X88.68Y-74.88
X88.68Y-90.12
X91.22Y-74.88
X91.22Y-90.12
X93.76Y-74.88
X93.76Y-90.12
X96.3Y-74.88
X96.3Y-90.12
X98.84Y-74.88
X98.84Y-90.12
X101.38Y-74.88
X101.38Y-90.12
T5
X130.995Y-88.0
X133.535Y-88.0
T6
X95.212Y-55.0
X95.212Y-60.0
X124.292Y-50.0
X124.292Y-65.0
T7
X116.27Y-85.5
X116.27Y-90.0
X122.77Y-85.5
X122.77Y-90.0
X139.84Y-68.0
X150.0Y-68.0
T8
X135.9Y-54.0
T9
X81.828Y-54.955
X81.828Y-60.035
X148.672Y-80.965
X148.672Y-86.045
T10
X137.9Y-48.0
X137.9Y-60.0
X150.1Y-48.0
X150.1Y-60.0
M30
