%TF.GenerationSoftware,KiCad,Pcbnew,10.0.3*%
%TF.CreationDate,2026-07-31T12:23:52-05:00*%
%TF.ProjectId,smartPlug-PCB,736d6172-7450-46c7-9567-2d5043422e6b,rev?*%
%TF.SameCoordinates,Original*%
%TF.FileFunction,Soldermask,Top*%
%TF.FilePolarity,Negative*%
%FSLAX46Y46*%
G04 Gerber Fmt 4.6, Leading zero omitted, Abs format (unit mm)*
G04 Created by KiCad (PCBNEW 10.0.3) date 2026-07-31 12:23:52*
%MOMM*%
%LPD*%
G01*
G04 APERTURE LIST*
G04 Aperture macros list*
%AMRoundRect*
0 Rectangle with rounded corners*
0 $1 Rounding radius*
0 $2 $3 $4 $5 $6 $7 $8 $9 X,Y pos of 4 corners*
0 Add a 4 corners polygon primitive as box body*
4,1,4,$2,$3,$4,$5,$6,$7,$8,$9,$2,$3,0*
0 Add four circle primitives for the rounded corners*
1,1,$1+$1,$2,$3*
1,1,$1+$1,$4,$5*
1,1,$1+$1,$6,$7*
1,1,$1+$1,$8,$9*
0 Add four rect primitives between the rounded corners*
20,1,$1+$1,$2,$3,$4,$5,0*
20,1,$1+$1,$4,$5,$6,$7,0*
20,1,$1+$1,$6,$7,$8,$9,0*
20,1,$1+$1,$8,$9,$2,$3,0*%
G04 Aperture macros list end*
%ADD10C,2.200000*%
%ADD11RoundRect,0.250000X-0.550000X-0.550000X0.550000X-0.550000X0.550000X0.550000X-0.550000X0.550000X0*%
%ADD12C,1.600000*%
%ADD13RoundRect,0.250000X1.050000X-1.050000X1.050000X1.050000X-1.050000X1.050000X-1.050000X-1.050000X0*%
%ADD14C,2.600000*%
%ADD15C,1.552000*%
%ADD16RoundRect,0.249999X0.850001X0.850001X-0.850001X0.850001X-0.850001X-0.850001X0.850001X-0.850001X0*%
%ADD17RoundRect,0.250000X-1.050000X1.050000X-1.050000X-1.050000X1.050000X-1.050000X1.050000X1.050000X0*%
%ADD18RoundRect,0.102000X0.990000X-0.990000X0.990000X0.990000X-0.990000X0.990000X-0.990000X-0.990000X0*%
%ADD19C,2.184000*%
%ADD20C,2.139000*%
%ADD21C,2.000000*%
%ADD22RoundRect,0.250000X-0.600000X-0.750000X0.600000X-0.750000X0.600000X0.750000X-0.600000X0.750000X0*%
%ADD23O,1.700000X2.000000*%
%ADD24R,1.050000X1.500000*%
%ADD25O,1.050000X1.500000*%
G04 APERTURE END LIST*
D10*
%TO.C,REF\u002A\u002A*%
X145800000Y-45600000D03*
%TD*%
%TO.C,REF\u002A\u002A*%
X146200000Y-96600000D03*
%TD*%
%TO.C,REF\u002A\u002A*%
X83600000Y-96600000D03*
%TD*%
%TO.C,REF\u002A\u002A*%
X83400000Y-45600000D03*
%TD*%
D11*
%TO.C,C1*%
X96400000Y-92920000D03*
D12*
X99900000Y-92920000D03*
%TD*%
D13*
%TO.C,J2*%
X141172500Y-86745000D03*
D14*
X141172500Y-81665000D03*
%TD*%
D15*
%TO.C,U1*%
X105960000Y-77240000D03*
X105960000Y-79780000D03*
X105960000Y-82320000D03*
X105960000Y-84860000D03*
X105960000Y-89940000D03*
X105960000Y-87400000D03*
X121200000Y-95020000D03*
X105960000Y-95020000D03*
X121200000Y-92480000D03*
X121200000Y-89940000D03*
X121200000Y-87400000D03*
X121200000Y-84860000D03*
X121200000Y-82320000D03*
X121200000Y-79780000D03*
X121200000Y-77240000D03*
X105960000Y-92480000D03*
%TD*%
D16*
%TO.C,D1*%
X142560000Y-74000000D03*
D10*
X132400000Y-74000000D03*
%TD*%
D12*
%TO.C,R1*%
X98000000Y-85000000D03*
X98000000Y-74840000D03*
%TD*%
D17*
%TO.C,J1*%
X87027500Y-81655000D03*
D14*
X87027500Y-86735000D03*
%TD*%
D18*
%TO.C,K1*%
X128600000Y-62612500D03*
D19*
X140600000Y-62612500D03*
D20*
X134600000Y-64612500D03*
D19*
X128600000Y-50412500D03*
X140600000Y-50412500D03*
%TD*%
D21*
%TO.C,SW2*%
X125950000Y-93770000D03*
X125950000Y-87270000D03*
X130450000Y-93770000D03*
X130450000Y-87270000D03*
%TD*%
D22*
%TO.C,U2*%
X92312500Y-55700000D03*
D23*
X92312500Y-60700000D03*
X121392500Y-50700000D03*
X121392500Y-65700000D03*
%TD*%
D24*
%TO.C,Q1*%
X127130000Y-80080000D03*
D25*
X128400000Y-80080000D03*
X129670000Y-80080000D03*
%TD*%
M02*
