%TF.GenerationSoftware,KiCad,Pcbnew,10.0.3*%
%TF.CreationDate,2026-07-31T12:23:52-05:00*%
%TF.ProjectId,smartPlug-PCB,736d6172-7450-46c7-9567-2d5043422e6b,rev?*%
%TF.SameCoordinates,Original*%
%TF.FileFunction,Legend,Top*%
%TF.FilePolarity,Positive*%
%FSLAX46Y46*%
G04 Gerber Fmt 4.6, Leading zero omitted, Abs format (unit mm)*
G04 Created by KiCad (PCBNEW 10.0.3) date 2026-07-31 12:23:52*
%MOMM*%
%LPD*%
G01*
G04 APERTURE LIST*
%ADD10C,0.150000*%
%ADD11C,0.120000*%
%ADD12C,0.127000*%
%ADD13C,0.300000*%
G04 APERTURE END LIST*
D10*
X144466666Y-42904819D02*
X144133333Y-42428628D01*
X143895238Y-42904819D02*
X143895238Y-41904819D01*
X143895238Y-41904819D02*
X144276190Y-41904819D01*
X144276190Y-41904819D02*
X144371428Y-41952438D01*
X144371428Y-41952438D02*
X144419047Y-42000057D01*
X144419047Y-42000057D02*
X144466666Y-42095295D01*
X144466666Y-42095295D02*
X144466666Y-42238152D01*
X144466666Y-42238152D02*
X144419047Y-42333390D01*
X144419047Y-42333390D02*
X144371428Y-42381009D01*
X144371428Y-42381009D02*
X144276190Y-42428628D01*
X144276190Y-42428628D02*
X143895238Y-42428628D01*
X144895238Y-42381009D02*
X145228571Y-42381009D01*
X145371428Y-42904819D02*
X144895238Y-42904819D01*
X144895238Y-42904819D02*
X144895238Y-41904819D01*
X144895238Y-41904819D02*
X145371428Y-41904819D01*
X146133333Y-42381009D02*
X145800000Y-42381009D01*
X145800000Y-42904819D02*
X145800000Y-41904819D01*
X145800000Y-41904819D02*
X146276190Y-41904819D01*
X146800000Y-41904819D02*
X146800000Y-42142914D01*
X146561905Y-42047676D02*
X146800000Y-42142914D01*
X146800000Y-42142914D02*
X147038095Y-42047676D01*
X146657143Y-42333390D02*
X146800000Y-42142914D01*
X146800000Y-42142914D02*
X146942857Y-42333390D01*
X147561905Y-41904819D02*
X147561905Y-42142914D01*
X147323810Y-42047676D02*
X147561905Y-42142914D01*
X147561905Y-42142914D02*
X147800000Y-42047676D01*
X147419048Y-42333390D02*
X147561905Y-42142914D01*
X147561905Y-42142914D02*
X147704762Y-42333390D01*
X144866666Y-93904819D02*
X144533333Y-93428628D01*
X144295238Y-93904819D02*
X144295238Y-92904819D01*
X144295238Y-92904819D02*
X144676190Y-92904819D01*
X144676190Y-92904819D02*
X144771428Y-92952438D01*
X144771428Y-92952438D02*
X144819047Y-93000057D01*
X144819047Y-93000057D02*
X144866666Y-93095295D01*
X144866666Y-93095295D02*
X144866666Y-93238152D01*
X144866666Y-93238152D02*
X144819047Y-93333390D01*
X144819047Y-93333390D02*
X144771428Y-93381009D01*
X144771428Y-93381009D02*
X144676190Y-93428628D01*
X144676190Y-93428628D02*
X144295238Y-93428628D01*
X145295238Y-93381009D02*
X145628571Y-93381009D01*
X145771428Y-93904819D02*
X145295238Y-93904819D01*
X145295238Y-93904819D02*
X145295238Y-92904819D01*
X145295238Y-92904819D02*
X145771428Y-92904819D01*
X146533333Y-93381009D02*
X146200000Y-93381009D01*
X146200000Y-93904819D02*
X146200000Y-92904819D01*
X146200000Y-92904819D02*
X146676190Y-92904819D01*
X147200000Y-92904819D02*
X147200000Y-93142914D01*
X146961905Y-93047676D02*
X147200000Y-93142914D01*
X147200000Y-93142914D02*
X147438095Y-93047676D01*
X147057143Y-93333390D02*
X147200000Y-93142914D01*
X147200000Y-93142914D02*
X147342857Y-93333390D01*
X147961905Y-92904819D02*
X147961905Y-93142914D01*
X147723810Y-93047676D02*
X147961905Y-93142914D01*
X147961905Y-93142914D02*
X148200000Y-93047676D01*
X147819048Y-93333390D02*
X147961905Y-93142914D01*
X147961905Y-93142914D02*
X148104762Y-93333390D01*
X82266666Y-93904819D02*
X81933333Y-93428628D01*
X81695238Y-93904819D02*
X81695238Y-92904819D01*
X81695238Y-92904819D02*
X82076190Y-92904819D01*
X82076190Y-92904819D02*
X82171428Y-92952438D01*
X82171428Y-92952438D02*
X82219047Y-93000057D01*
X82219047Y-93000057D02*
X82266666Y-93095295D01*
X82266666Y-93095295D02*
X82266666Y-93238152D01*
X82266666Y-93238152D02*
X82219047Y-93333390D01*
X82219047Y-93333390D02*
X82171428Y-93381009D01*
X82171428Y-93381009D02*
X82076190Y-93428628D01*
X82076190Y-93428628D02*
X81695238Y-93428628D01*
X82695238Y-93381009D02*
X83028571Y-93381009D01*
X83171428Y-93904819D02*
X82695238Y-93904819D01*
X82695238Y-93904819D02*
X82695238Y-92904819D01*
X82695238Y-92904819D02*
X83171428Y-92904819D01*
X83933333Y-93381009D02*
X83600000Y-93381009D01*
X83600000Y-93904819D02*
X83600000Y-92904819D01*
X83600000Y-92904819D02*
X84076190Y-92904819D01*
X84600000Y-92904819D02*
X84600000Y-93142914D01*
X84361905Y-93047676D02*
X84600000Y-93142914D01*
X84600000Y-93142914D02*
X84838095Y-93047676D01*
X84457143Y-93333390D02*
X84600000Y-93142914D01*
X84600000Y-93142914D02*
X84742857Y-93333390D01*
X85361905Y-92904819D02*
X85361905Y-93142914D01*
X85123810Y-93047676D02*
X85361905Y-93142914D01*
X85361905Y-93142914D02*
X85600000Y-93047676D01*
X85219048Y-93333390D02*
X85361905Y-93142914D01*
X85361905Y-93142914D02*
X85504762Y-93333390D01*
X82066666Y-42904819D02*
X81733333Y-42428628D01*
X81495238Y-42904819D02*
X81495238Y-41904819D01*
X81495238Y-41904819D02*
X81876190Y-41904819D01*
X81876190Y-41904819D02*
X81971428Y-41952438D01*
X81971428Y-41952438D02*
X82019047Y-42000057D01*
X82019047Y-42000057D02*
X82066666Y-42095295D01*
X82066666Y-42095295D02*
X82066666Y-42238152D01*
X82066666Y-42238152D02*
X82019047Y-42333390D01*
X82019047Y-42333390D02*
X81971428Y-42381009D01*
X81971428Y-42381009D02*
X81876190Y-42428628D01*
X81876190Y-42428628D02*
X81495238Y-42428628D01*
X82495238Y-42381009D02*
X82828571Y-42381009D01*
X82971428Y-42904819D02*
X82495238Y-42904819D01*
X82495238Y-42904819D02*
X82495238Y-41904819D01*
X82495238Y-41904819D02*
X82971428Y-41904819D01*
X83733333Y-42381009D02*
X83400000Y-42381009D01*
X83400000Y-42904819D02*
X83400000Y-41904819D01*
X83400000Y-41904819D02*
X83876190Y-41904819D01*
X84400000Y-41904819D02*
X84400000Y-42142914D01*
X84161905Y-42047676D02*
X84400000Y-42142914D01*
X84400000Y-42142914D02*
X84638095Y-42047676D01*
X84257143Y-42333390D02*
X84400000Y-42142914D01*
X84400000Y-42142914D02*
X84542857Y-42333390D01*
X85161905Y-41904819D02*
X85161905Y-42142914D01*
X84923810Y-42047676D02*
X85161905Y-42142914D01*
X85161905Y-42142914D02*
X85400000Y-42047676D01*
X85019048Y-42333390D02*
X85161905Y-42142914D01*
X85161905Y-42142914D02*
X85304762Y-42333390D01*
X97983333Y-88029580D02*
X97935714Y-88077200D01*
X97935714Y-88077200D02*
X97792857Y-88124819D01*
X97792857Y-88124819D02*
X97697619Y-88124819D01*
X97697619Y-88124819D02*
X97554762Y-88077200D01*
X97554762Y-88077200D02*
X97459524Y-87981961D01*
X97459524Y-87981961D02*
X97411905Y-87886723D01*
X97411905Y-87886723D02*
X97364286Y-87696247D01*
X97364286Y-87696247D02*
X97364286Y-87553390D01*
X97364286Y-87553390D02*
X97411905Y-87362914D01*
X97411905Y-87362914D02*
X97459524Y-87267676D01*
X97459524Y-87267676D02*
X97554762Y-87172438D01*
X97554762Y-87172438D02*
X97697619Y-87124819D01*
X97697619Y-87124819D02*
X97792857Y-87124819D01*
X97792857Y-87124819D02*
X97935714Y-87172438D01*
X97935714Y-87172438D02*
X97983333Y-87220057D01*
X98935714Y-88124819D02*
X98364286Y-88124819D01*
X98650000Y-88124819D02*
X98650000Y-87124819D01*
X98650000Y-87124819D02*
X98554762Y-87267676D01*
X98554762Y-87267676D02*
X98459524Y-87362914D01*
X98459524Y-87362914D02*
X98364286Y-87410533D01*
X134307319Y-84538333D02*
X135021604Y-84538333D01*
X135021604Y-84538333D02*
X135164461Y-84585952D01*
X135164461Y-84585952D02*
X135259700Y-84681190D01*
X135259700Y-84681190D02*
X135307319Y-84824047D01*
X135307319Y-84824047D02*
X135307319Y-84919285D01*
X134402557Y-84109761D02*
X134354938Y-84062142D01*
X134354938Y-84062142D02*
X134307319Y-83966904D01*
X134307319Y-83966904D02*
X134307319Y-83728809D01*
X134307319Y-83728809D02*
X134354938Y-83633571D01*
X134354938Y-83633571D02*
X134402557Y-83585952D01*
X134402557Y-83585952D02*
X134497795Y-83538333D01*
X134497795Y-83538333D02*
X134593033Y-83538333D01*
X134593033Y-83538333D02*
X134735890Y-83585952D01*
X134735890Y-83585952D02*
X135307319Y-84157380D01*
X135307319Y-84157380D02*
X135307319Y-83538333D01*
X118533095Y-98227319D02*
X118533095Y-99036842D01*
X118533095Y-99036842D02*
X118580714Y-99132080D01*
X118580714Y-99132080D02*
X118628333Y-99179700D01*
X118628333Y-99179700D02*
X118723571Y-99227319D01*
X118723571Y-99227319D02*
X118914047Y-99227319D01*
X118914047Y-99227319D02*
X119009285Y-99179700D01*
X119009285Y-99179700D02*
X119056904Y-99132080D01*
X119056904Y-99132080D02*
X119104523Y-99036842D01*
X119104523Y-99036842D02*
X119104523Y-98227319D01*
X120104523Y-99227319D02*
X119533095Y-99227319D01*
X119818809Y-99227319D02*
X119818809Y-98227319D01*
X119818809Y-98227319D02*
X119723571Y-98370176D01*
X119723571Y-98370176D02*
X119628333Y-98465414D01*
X119628333Y-98465414D02*
X119533095Y-98513033D01*
X136741905Y-76924819D02*
X136741905Y-75924819D01*
X136741905Y-75924819D02*
X136980000Y-75924819D01*
X136980000Y-75924819D02*
X137122857Y-75972438D01*
X137122857Y-75972438D02*
X137218095Y-76067676D01*
X137218095Y-76067676D02*
X137265714Y-76162914D01*
X137265714Y-76162914D02*
X137313333Y-76353390D01*
X137313333Y-76353390D02*
X137313333Y-76496247D01*
X137313333Y-76496247D02*
X137265714Y-76686723D01*
X137265714Y-76686723D02*
X137218095Y-76781961D01*
X137218095Y-76781961D02*
X137122857Y-76877200D01*
X137122857Y-76877200D02*
X136980000Y-76924819D01*
X136980000Y-76924819D02*
X136741905Y-76924819D01*
X138265714Y-76924819D02*
X137694286Y-76924819D01*
X137980000Y-76924819D02*
X137980000Y-75924819D01*
X137980000Y-75924819D02*
X137884762Y-76067676D01*
X137884762Y-76067676D02*
X137789524Y-76162914D01*
X137789524Y-76162914D02*
X137694286Y-76210533D01*
X142298095Y-76554819D02*
X142298095Y-75554819D01*
X142869523Y-76554819D02*
X142440952Y-75983390D01*
X142869523Y-75554819D02*
X142298095Y-76126247D01*
X96084819Y-80086666D02*
X95608628Y-80419999D01*
X96084819Y-80658094D02*
X95084819Y-80658094D01*
X95084819Y-80658094D02*
X95084819Y-80277142D01*
X95084819Y-80277142D02*
X95132438Y-80181904D01*
X95132438Y-80181904D02*
X95180057Y-80134285D01*
X95180057Y-80134285D02*
X95275295Y-80086666D01*
X95275295Y-80086666D02*
X95418152Y-80086666D01*
X95418152Y-80086666D02*
X95513390Y-80134285D01*
X95513390Y-80134285D02*
X95561009Y-80181904D01*
X95561009Y-80181904D02*
X95608628Y-80277142D01*
X95608628Y-80277142D02*
X95608628Y-80658094D01*
X96084819Y-79134285D02*
X96084819Y-79705713D01*
X96084819Y-79419999D02*
X95084819Y-79419999D01*
X95084819Y-79419999D02*
X95227676Y-79515237D01*
X95227676Y-79515237D02*
X95322914Y-79610475D01*
X95322914Y-79610475D02*
X95370533Y-79705713D01*
X92802319Y-84528333D02*
X93516604Y-84528333D01*
X93516604Y-84528333D02*
X93659461Y-84575952D01*
X93659461Y-84575952D02*
X93754700Y-84671190D01*
X93754700Y-84671190D02*
X93802319Y-84814047D01*
X93802319Y-84814047D02*
X93802319Y-84909285D01*
X93802319Y-83528333D02*
X93802319Y-84099761D01*
X93802319Y-83814047D02*
X92802319Y-83814047D01*
X92802319Y-83814047D02*
X92945176Y-83909285D01*
X92945176Y-83909285D02*
X93040414Y-84004523D01*
X93040414Y-84004523D02*
X93088033Y-84099761D01*
X126219023Y-63876294D02*
X125218929Y-63876294D01*
X126219023Y-63304812D02*
X125647541Y-63733423D01*
X125218929Y-63304812D02*
X125790411Y-63876294D01*
X126219023Y-62352341D02*
X126219023Y-62923823D01*
X126219023Y-62638082D02*
X125218929Y-62638082D01*
X125218929Y-62638082D02*
X125361800Y-62733329D01*
X125361800Y-62733329D02*
X125457047Y-62828576D01*
X125457047Y-62828576D02*
X125504670Y-62923823D01*
X124357200Y-91853332D02*
X124404819Y-91710475D01*
X124404819Y-91710475D02*
X124404819Y-91472380D01*
X124404819Y-91472380D02*
X124357200Y-91377142D01*
X124357200Y-91377142D02*
X124309580Y-91329523D01*
X124309580Y-91329523D02*
X124214342Y-91281904D01*
X124214342Y-91281904D02*
X124119104Y-91281904D01*
X124119104Y-91281904D02*
X124023866Y-91329523D01*
X124023866Y-91329523D02*
X123976247Y-91377142D01*
X123976247Y-91377142D02*
X123928628Y-91472380D01*
X123928628Y-91472380D02*
X123881009Y-91662856D01*
X123881009Y-91662856D02*
X123833390Y-91758094D01*
X123833390Y-91758094D02*
X123785771Y-91805713D01*
X123785771Y-91805713D02*
X123690533Y-91853332D01*
X123690533Y-91853332D02*
X123595295Y-91853332D01*
X123595295Y-91853332D02*
X123500057Y-91805713D01*
X123500057Y-91805713D02*
X123452438Y-91758094D01*
X123452438Y-91758094D02*
X123404819Y-91662856D01*
X123404819Y-91662856D02*
X123404819Y-91424761D01*
X123404819Y-91424761D02*
X123452438Y-91281904D01*
X123404819Y-90948570D02*
X124404819Y-90710475D01*
X124404819Y-90710475D02*
X123690533Y-90519999D01*
X123690533Y-90519999D02*
X124404819Y-90329523D01*
X124404819Y-90329523D02*
X123404819Y-90091428D01*
X123500057Y-89758094D02*
X123452438Y-89710475D01*
X123452438Y-89710475D02*
X123404819Y-89615237D01*
X123404819Y-89615237D02*
X123404819Y-89377142D01*
X123404819Y-89377142D02*
X123452438Y-89281904D01*
X123452438Y-89281904D02*
X123500057Y-89234285D01*
X123500057Y-89234285D02*
X123595295Y-89186666D01*
X123595295Y-89186666D02*
X123690533Y-89186666D01*
X123690533Y-89186666D02*
X123833390Y-89234285D01*
X123833390Y-89234285D02*
X124404819Y-89805713D01*
X124404819Y-89805713D02*
X124404819Y-89186666D01*
X106090595Y-45454819D02*
X106090595Y-46264342D01*
X106090595Y-46264342D02*
X106138214Y-46359580D01*
X106138214Y-46359580D02*
X106185833Y-46407200D01*
X106185833Y-46407200D02*
X106281071Y-46454819D01*
X106281071Y-46454819D02*
X106471547Y-46454819D01*
X106471547Y-46454819D02*
X106566785Y-46407200D01*
X106566785Y-46407200D02*
X106614404Y-46359580D01*
X106614404Y-46359580D02*
X106662023Y-46264342D01*
X106662023Y-46264342D02*
X106662023Y-45454819D01*
X107090595Y-45550057D02*
X107138214Y-45502438D01*
X107138214Y-45502438D02*
X107233452Y-45454819D01*
X107233452Y-45454819D02*
X107471547Y-45454819D01*
X107471547Y-45454819D02*
X107566785Y-45502438D01*
X107566785Y-45502438D02*
X107614404Y-45550057D01*
X107614404Y-45550057D02*
X107662023Y-45645295D01*
X107662023Y-45645295D02*
X107662023Y-45740533D01*
X107662023Y-45740533D02*
X107614404Y-45883390D01*
X107614404Y-45883390D02*
X107042976Y-46454819D01*
X107042976Y-46454819D02*
X107662023Y-46454819D01*
X128304761Y-77070057D02*
X128209523Y-77022438D01*
X128209523Y-77022438D02*
X128114285Y-76927200D01*
X128114285Y-76927200D02*
X127971428Y-76784342D01*
X127971428Y-76784342D02*
X127876190Y-76736723D01*
X127876190Y-76736723D02*
X127780952Y-76736723D01*
X127828571Y-76974819D02*
X127733333Y-76927200D01*
X127733333Y-76927200D02*
X127638095Y-76831961D01*
X127638095Y-76831961D02*
X127590476Y-76641485D01*
X127590476Y-76641485D02*
X127590476Y-76308152D01*
X127590476Y-76308152D02*
X127638095Y-76117676D01*
X127638095Y-76117676D02*
X127733333Y-76022438D01*
X127733333Y-76022438D02*
X127828571Y-75974819D01*
X127828571Y-75974819D02*
X128019047Y-75974819D01*
X128019047Y-75974819D02*
X128114285Y-76022438D01*
X128114285Y-76022438D02*
X128209523Y-76117676D01*
X128209523Y-76117676D02*
X128257142Y-76308152D01*
X128257142Y-76308152D02*
X128257142Y-76641485D01*
X128257142Y-76641485D02*
X128209523Y-76831961D01*
X128209523Y-76831961D02*
X128114285Y-76927200D01*
X128114285Y-76927200D02*
X128019047Y-76974819D01*
X128019047Y-76974819D02*
X127828571Y-76974819D01*
X129209523Y-76974819D02*
X128638095Y-76974819D01*
X128923809Y-76974819D02*
X128923809Y-75974819D01*
X128923809Y-75974819D02*
X128828571Y-76117676D01*
X128828571Y-76117676D02*
X128733333Y-76212914D01*
X128733333Y-76212914D02*
X128638095Y-76260533D01*
%TO.C,C1*%
D11*
X93740302Y-90605000D02*
X94540302Y-90605000D01*
X94140302Y-90205000D02*
X94140302Y-91005000D01*
X98150000Y-88840000D02*
X98150000Y-97000000D01*
X98190000Y-88840000D02*
X98190000Y-97000000D01*
X98230000Y-88841000D02*
X98230000Y-96999000D01*
X98270000Y-88842000D02*
X98270000Y-96998000D01*
X98310000Y-88843000D02*
X98310000Y-96997000D01*
X98350000Y-88845000D02*
X98350000Y-96995000D01*
X98390000Y-88847000D02*
X98390000Y-96993000D01*
X98430000Y-88850000D02*
X98430000Y-96990000D01*
X98470000Y-88852000D02*
X98470000Y-96988000D01*
X98510000Y-88856000D02*
X98510000Y-96984000D01*
X98550000Y-88859000D02*
X98550000Y-96981000D01*
X98590000Y-88864000D02*
X98590000Y-96976000D01*
X98630000Y-88868000D02*
X98630000Y-96972000D01*
X98670000Y-88873000D02*
X98670000Y-96967000D01*
X98710000Y-88878000D02*
X98710000Y-96962000D01*
X98750000Y-88884000D02*
X98750000Y-96956000D01*
X98790000Y-88890000D02*
X98790000Y-96950000D01*
X98830000Y-88897000D02*
X98830000Y-96943000D01*
X98870000Y-88903000D02*
X98870000Y-91880000D01*
X98870000Y-93960000D02*
X98870000Y-96937000D01*
X98910000Y-88911000D02*
X98910000Y-91880000D01*
X98910000Y-93960000D02*
X98910000Y-96929000D01*
X98950000Y-88918000D02*
X98950000Y-91880000D01*
X98950000Y-93960000D02*
X98950000Y-96922000D01*
X98990000Y-88927000D02*
X98990000Y-91880000D01*
X98990000Y-93960000D02*
X98990000Y-96913000D01*
X99030000Y-88935000D02*
X99030000Y-91880000D01*
X99030000Y-93960000D02*
X99030000Y-96905000D01*
X99070000Y-88944000D02*
X99070000Y-91880000D01*
X99070000Y-93960000D02*
X99070000Y-96896000D01*
X99110000Y-88953000D02*
X99110000Y-91880000D01*
X99110000Y-93960000D02*
X99110000Y-96887000D01*
X99150000Y-88963000D02*
X99150000Y-91880000D01*
X99150000Y-93960000D02*
X99150000Y-96877000D01*
X99190000Y-88973000D02*
X99190000Y-91880000D01*
X99190000Y-93960000D02*
X99190000Y-96867000D01*
X99230000Y-88984000D02*
X99230000Y-91880000D01*
X99230000Y-93960000D02*
X99230000Y-96856000D01*
X99270000Y-88995000D02*
X99270000Y-91880000D01*
X99270000Y-93960000D02*
X99270000Y-96845000D01*
X99310000Y-89007000D02*
X99310000Y-91880000D01*
X99310000Y-93960000D02*
X99310000Y-96833000D01*
X99350000Y-89019000D02*
X99350000Y-91880000D01*
X99350000Y-93960000D02*
X99350000Y-96821000D01*
X99390000Y-89031000D02*
X99390000Y-91880000D01*
X99390000Y-93960000D02*
X99390000Y-96809000D01*
X99430000Y-89044000D02*
X99430000Y-91880000D01*
X99430000Y-93960000D02*
X99430000Y-96796000D01*
X99470000Y-89057000D02*
X99470000Y-91880000D01*
X99470000Y-93960000D02*
X99470000Y-96783000D01*
X99510000Y-89071000D02*
X99510000Y-91880000D01*
X99510000Y-93960000D02*
X99510000Y-96769000D01*
X99550000Y-89085000D02*
X99550000Y-91880000D01*
X99550000Y-93960000D02*
X99550000Y-96755000D01*
X99590000Y-89100000D02*
X99590000Y-91880000D01*
X99590000Y-93960000D02*
X99590000Y-96740000D01*
X99630000Y-89115000D02*
X99630000Y-91880000D01*
X99630000Y-93960000D02*
X99630000Y-96725000D01*
X99670000Y-89131000D02*
X99670000Y-91880000D01*
X99670000Y-93960000D02*
X99670000Y-96709000D01*
X99710000Y-89147000D02*
X99710000Y-91880000D01*
X99710000Y-93960000D02*
X99710000Y-96693000D01*
X99750000Y-89163000D02*
X99750000Y-91880000D01*
X99750000Y-93960000D02*
X99750000Y-96677000D01*
X99790000Y-89180000D02*
X99790000Y-91880000D01*
X99790000Y-93960000D02*
X99790000Y-96660000D01*
X99830000Y-89198000D02*
X99830000Y-91880000D01*
X99830000Y-93960000D02*
X99830000Y-96642000D01*
X99870000Y-89216000D02*
X99870000Y-91880000D01*
X99870000Y-93960000D02*
X99870000Y-96624000D01*
X99910000Y-89235000D02*
X99910000Y-91880000D01*
X99910000Y-93960000D02*
X99910000Y-96605000D01*
X99950000Y-89254000D02*
X99950000Y-91880000D01*
X99950000Y-93960000D02*
X99950000Y-96586000D01*
X99990000Y-89274000D02*
X99990000Y-91880000D01*
X99990000Y-93960000D02*
X99990000Y-96566000D01*
X100030000Y-89294000D02*
X100030000Y-91880000D01*
X100030000Y-93960000D02*
X100030000Y-96546000D01*
X100070000Y-89315000D02*
X100070000Y-91880000D01*
X100070000Y-93960000D02*
X100070000Y-96525000D01*
X100110000Y-89336000D02*
X100110000Y-91880000D01*
X100110000Y-93960000D02*
X100110000Y-96504000D01*
X100150000Y-89358000D02*
X100150000Y-91880000D01*
X100150000Y-93960000D02*
X100150000Y-96482000D01*
X100190000Y-89381000D02*
X100190000Y-91880000D01*
X100190000Y-93960000D02*
X100190000Y-96459000D01*
X100230000Y-89404000D02*
X100230000Y-91880000D01*
X100230000Y-93960000D02*
X100230000Y-96436000D01*
X100270000Y-89427000D02*
X100270000Y-91880000D01*
X100270000Y-93960000D02*
X100270000Y-96413000D01*
X100310000Y-89452000D02*
X100310000Y-91880000D01*
X100310000Y-93960000D02*
X100310000Y-96388000D01*
X100350000Y-89477000D02*
X100350000Y-91880000D01*
X100350000Y-93960000D02*
X100350000Y-96363000D01*
X100390000Y-89502000D02*
X100390000Y-91880000D01*
X100390000Y-93960000D02*
X100390000Y-96338000D01*
X100430000Y-89528000D02*
X100430000Y-91880000D01*
X100430000Y-93960000D02*
X100430000Y-96312000D01*
X100470000Y-89555000D02*
X100470000Y-91880000D01*
X100470000Y-93960000D02*
X100470000Y-96285000D01*
X100510000Y-89583000D02*
X100510000Y-91880000D01*
X100510000Y-93960000D02*
X100510000Y-96257000D01*
X100550000Y-89611000D02*
X100550000Y-91880000D01*
X100550000Y-93960000D02*
X100550000Y-96229000D01*
X100590000Y-89640000D02*
X100590000Y-91880000D01*
X100590000Y-93960000D02*
X100590000Y-96200000D01*
X100630000Y-89670000D02*
X100630000Y-91880000D01*
X100630000Y-93960000D02*
X100630000Y-96170000D01*
X100670000Y-89701000D02*
X100670000Y-91880000D01*
X100670000Y-93960000D02*
X100670000Y-96139000D01*
X100710000Y-89732000D02*
X100710000Y-91880000D01*
X100710000Y-93960000D02*
X100710000Y-96108000D01*
X100750000Y-89764000D02*
X100750000Y-91880000D01*
X100750000Y-93960000D02*
X100750000Y-96076000D01*
X100790000Y-89797000D02*
X100790000Y-91880000D01*
X100790000Y-93960000D02*
X100790000Y-96043000D01*
X100830000Y-89831000D02*
X100830000Y-91880000D01*
X100830000Y-93960000D02*
X100830000Y-96009000D01*
X100870000Y-89865000D02*
X100870000Y-91880000D01*
X100870000Y-93960000D02*
X100870000Y-95975000D01*
X100910000Y-89901000D02*
X100910000Y-91880000D01*
X100910000Y-93960000D02*
X100910000Y-95939000D01*
X100950000Y-89938000D02*
X100950000Y-95902000D01*
X100990000Y-89975000D02*
X100990000Y-95865000D01*
X101030000Y-90014000D02*
X101030000Y-95826000D01*
X101070000Y-90053000D02*
X101070000Y-95787000D01*
X101110000Y-90094000D02*
X101110000Y-95746000D01*
X101150000Y-90136000D02*
X101150000Y-95704000D01*
X101190000Y-90179000D02*
X101190000Y-95661000D01*
X101230000Y-90224000D02*
X101230000Y-95616000D01*
X101270000Y-90269000D02*
X101270000Y-95571000D01*
X101310000Y-90316000D02*
X101310000Y-95524000D01*
X101350000Y-90365000D02*
X101350000Y-95475000D01*
X101390000Y-90415000D02*
X101390000Y-95425000D01*
X101430000Y-90467000D02*
X101430000Y-95373000D01*
X101470000Y-90520000D02*
X101470000Y-95320000D01*
X101510000Y-90576000D02*
X101510000Y-95264000D01*
X101550000Y-90633000D02*
X101550000Y-95207000D01*
X101590000Y-90693000D02*
X101590000Y-95147000D01*
X101630000Y-90755000D02*
X101630000Y-95085000D01*
X101670000Y-90819000D02*
X101670000Y-95021000D01*
X101710000Y-90886000D02*
X101710000Y-94954000D01*
X101750000Y-90956000D02*
X101750000Y-94884000D01*
X101790000Y-91030000D02*
X101790000Y-94810000D01*
X101830000Y-91107000D02*
X101830000Y-94733000D01*
X101870000Y-91189000D02*
X101870000Y-94651000D01*
X101910000Y-91276000D02*
X101910000Y-94564000D01*
X101950000Y-91368000D02*
X101950000Y-94472000D01*
X101990000Y-91467000D02*
X101990000Y-94373000D01*
X102030000Y-91574000D02*
X102030000Y-94266000D01*
X102070000Y-91692000D02*
X102070000Y-94148000D01*
X102110000Y-91823000D02*
X102110000Y-94017000D01*
X102150000Y-91973000D02*
X102150000Y-93867000D01*
X102190000Y-92152000D02*
X102190000Y-93688000D01*
X102230000Y-92387000D02*
X102230000Y-93453000D01*
X102270000Y-92920000D02*
G75*
G02*
X94030000Y-92920000I-4120000J0D01*
G01*
X94030000Y-92920000D02*
G75*
G02*
X102270000Y-92920000I4120000J0D01*
G01*
%TO.C,J2*%
X135852500Y-79005000D02*
X145892500Y-79005000D01*
X135852500Y-89405000D02*
X135852500Y-79005000D01*
X138872500Y-89405000D02*
X138872500Y-79005000D01*
X143772500Y-89405000D02*
X143772500Y-79005000D01*
X145272500Y-89405000D02*
X145272500Y-79005000D01*
X145892500Y-79005000D02*
X145892500Y-86445000D01*
X145892500Y-87045000D02*
X145892500Y-89405000D01*
X145892500Y-89405000D02*
X135852500Y-89405000D01*
X145892500Y-86745000D02*
X146502500Y-86305000D01*
X146502500Y-87185000D01*
X145892500Y-86745000D01*
G36*
X146502500Y-87185000D02*
G01*
X145892500Y-86745000D01*
X146502500Y-86305000D01*
X146502500Y-87185000D01*
G37*
%TO.C,U1*%
D12*
X109080000Y-97770000D02*
X118080000Y-97770000D01*
X109080000Y-97770000D02*
X109080000Y-96470000D01*
X118080000Y-97770000D02*
X118080000Y-96470000D01*
X104580000Y-96470000D02*
X109080000Y-96470000D01*
X118080000Y-96470000D02*
X122580000Y-96470000D01*
X104580000Y-73770000D02*
X104580000Y-96470000D01*
X104580000Y-73770000D02*
X122580000Y-73770000D01*
X122580000Y-73770000D02*
X122580000Y-96470000D01*
%TO.C,D1*%
D11*
X133740000Y-74000000D02*
X134760000Y-74000000D01*
X139180000Y-75470000D02*
X139180000Y-72530000D01*
X139300000Y-75470000D02*
X139300000Y-72530000D01*
X139420000Y-75470000D02*
X139420000Y-72530000D01*
X141220000Y-74000000D02*
X140200000Y-74000000D01*
X134760000Y-72530000D02*
X140200000Y-72530000D01*
X140200000Y-75470000D01*
X134760000Y-75470000D01*
X134760000Y-72530000D01*
%TO.C,R1*%
X98000000Y-83960000D02*
X98000000Y-83190000D01*
X98000000Y-75880000D02*
X98000000Y-76650000D01*
X96630000Y-76650000D02*
X99370000Y-76650000D01*
X99370000Y-83190000D01*
X96630000Y-83190000D01*
X96630000Y-76650000D01*
%TO.C,J1*%
X82307500Y-78995000D02*
X92347500Y-78995000D01*
X82307500Y-81355000D02*
X82307500Y-78995000D01*
X82307500Y-89395000D02*
X82307500Y-81955000D01*
X82927500Y-78995000D02*
X82927500Y-89395000D01*
X84427500Y-78995000D02*
X84427500Y-89395000D01*
X89327500Y-78995000D02*
X89327500Y-89395000D01*
X92347500Y-78995000D02*
X92347500Y-89395000D01*
X92347500Y-89395000D02*
X82307500Y-89395000D01*
X82307500Y-81655000D02*
X81697500Y-82095000D01*
X81697500Y-81215000D01*
X82307500Y-81655000D01*
G36*
X82307500Y-81655000D02*
G01*
X81697500Y-82095000D01*
X81697500Y-81215000D01*
X82307500Y-81655000D01*
G37*
%TO.C,K1*%
D12*
X126850000Y-66062500D02*
X126850000Y-46962500D01*
X142350000Y-66062500D02*
X126850000Y-66062500D01*
X126850000Y-46962500D02*
X142350000Y-46962500D01*
X142350000Y-46962500D02*
X142350000Y-66062500D01*
D13*
X128581000Y-66712500D02*
G75*
G02*
X128381000Y-66712500I-100000J0D01*
G01*
X128381000Y-66712500D02*
G75*
G02*
X128581000Y-66712500I100000J0D01*
G01*
%TO.C,SW2*%
D11*
X127450000Y-94020000D02*
X128950000Y-94020000D01*
X131450000Y-92770000D02*
X131450000Y-88270000D01*
X124950000Y-88270000D02*
X124950000Y-92770000D01*
X128950000Y-87020000D02*
X127450000Y-87020000D01*
%TO.C,U2*%
X88342500Y-46840000D02*
X125362500Y-46840000D01*
X88342500Y-55404000D02*
X88342500Y-46840000D01*
X88342500Y-69560000D02*
X88342500Y-55996000D01*
X125362500Y-46840000D02*
X125362500Y-69560000D01*
X125362500Y-69560000D02*
X88342500Y-69560000D01*
X88342500Y-55700000D02*
X87732500Y-56140000D01*
X87732500Y-55260000D01*
X88342500Y-55700000D01*
G36*
X88342500Y-55700000D02*
G01*
X87732500Y-56140000D01*
X87732500Y-55260000D01*
X88342500Y-55700000D01*
G37*
%TO.C,Q1*%
X126600000Y-81930000D02*
X130200000Y-81930000D01*
X126561522Y-81918478D02*
G75*
G02*
X128400000Y-77479999I1838478J1838478D01*
G01*
X128400000Y-77480000D02*
G75*
G02*
X130238478Y-81918478I0J-2600000D01*
G01*
%TD*%
M02*
