%TF.GenerationSoftware,KiCad,Pcbnew,10.0.3*%
%TF.CreationDate,2026-07-31T12:23:52-05:00*%
%TF.ProjectId,smartPlug-PCB,736d6172-7450-46c7-9567-2d5043422e6b,rev?*%
%TF.SameCoordinates,Original*%
%TF.FileFunction,Copper,L2,Bot*%
%TF.FilePolarity,Positive*%
%FSLAX46Y46*%
G04 Gerber Fmt 4.6, Leading zero omitted, Abs format (unit mm)*
G04 Created by KiCad (PCBNEW 10.0.3) date 2026-07-31 12:23:52*
%MOMM*%
%LPD*%
G01*
G04 APERTURE LIST*
G04 Aperture macros list*
%AMRoundRect*
0 Rectangle with rounded corners*
0 $1 Rounding radius*
0 $2 $3 $4 $5 $6 $7 $8 $9 X,Y pos of 4 corners*
0 Add a 4 corners polygon primitive as box body*
4,1,4,$2,$3,$4,$5,$6,$7,$8,$9,$2,$3,0*
0 Add four circle primitives for the rounded corners*
1,1,$1+$1,$2,$3*
1,1,$1+$1,$4,$5*
1,1,$1+$1,$6,$7*
1,1,$1+$1,$8,$9*
0 Add four rect primitives between the rounded corners*
20,1,$1+$1,$2,$3,$4,$5,0*
20,1,$1+$1,$4,$5,$6,$7,0*
20,1,$1+$1,$6,$7,$8,$9,0*
20,1,$1+$1,$8,$9,$2,$3,0*%
G04 Aperture macros list end*
%TA.AperFunction,ComponentPad*%
%ADD10RoundRect,0.250000X-0.550000X-0.550000X0.550000X-0.550000X0.550000X0.550000X-0.550000X0.550000X0*%
%TD*%
%TA.AperFunction,ComponentPad*%
%ADD11C,1.600000*%
%TD*%
%TA.AperFunction,ComponentPad*%
%ADD12RoundRect,0.250000X1.050000X-1.050000X1.050000X1.050000X-1.050000X1.050000X-1.050000X-1.050000X0*%
%TD*%
%TA.AperFunction,ComponentPad*%
%ADD13C,2.600000*%
%TD*%
%TA.AperFunction,ComponentPad*%
%ADD14C,1.348000*%
%TD*%
%TA.AperFunction,ComponentPad*%
%ADD15RoundRect,0.249999X0.850001X0.850001X-0.850001X0.850001X-0.850001X-0.850001X0.850001X-0.850001X0*%
%TD*%
%TA.AperFunction,ComponentPad*%
%ADD16C,2.200000*%
%TD*%
%TA.AperFunction,ComponentPad*%
%ADD17RoundRect,0.250000X-1.050000X1.050000X-1.050000X-1.050000X1.050000X-1.050000X1.050000X1.050000X0*%
%TD*%
%TA.AperFunction,ComponentPad*%
%ADD18R,1.980000X1.980000*%
%TD*%
%TA.AperFunction,ComponentPad*%
%ADD19C,1.980000*%
%TD*%
%TA.AperFunction,ComponentPad*%
%ADD20C,1.935000*%
%TD*%
%TA.AperFunction,ComponentPad*%
%ADD21C,2.000000*%
%TD*%
%TA.AperFunction,ComponentPad*%
%ADD22RoundRect,0.250000X-0.600000X-0.750000X0.600000X-0.750000X0.600000X0.750000X-0.600000X0.750000X0*%
%TD*%
%TA.AperFunction,ComponentPad*%
%ADD23O,1.700000X2.000000*%
%TD*%
%TA.AperFunction,ComponentPad*%
%ADD24R,1.050000X1.500000*%
%TD*%
%TA.AperFunction,ComponentPad*%
%ADD25O,1.050000X1.500000*%
%TD*%
%TA.AperFunction,ViaPad*%
%ADD26C,0.600000*%
%TD*%
%TA.AperFunction,Conductor*%
%ADD27C,0.400000*%
%TD*%
%TA.AperFunction,Conductor*%
%ADD28C,0.200000*%
%TD*%
G04 APERTURE END LIST*
D10*
%TO.P,C1,1*%
%TO.N,Net-(D1-K)*%
X96400000Y-92920000D03*
D11*
%TO.P,C1,2*%
%TO.N,GND*%
X99900000Y-92920000D03*
%TD*%
D12*
%TO.P,J2,1,Pin_1_1*%
%TO.N,Net-(J2-Pin_1)*%
X141172500Y-86745000D03*
D13*
%TO.P,J2,2,Pin_2_2*%
%TO.N,Net-(J1-Pin_2)*%
X141172500Y-81665000D03*
%TD*%
D14*
%TO.P,U1,0,GPIO0_0*%
%TO.N,Net-(U1-GPIO0)*%
X105960000Y-77240000D03*
%TO.P,U1,1,GPIO1_1*%
%TO.N,unconnected-(U1-GPIO1-Pad1)*%
X105960000Y-79780000D03*
%TO.P,U1,2,GPIO2_2*%
%TO.N,Net-(U1-GPIO2)*%
X105960000Y-82320000D03*
%TO.P,U1,3,GPIO3_3*%
%TO.N,unconnected-(U1-GPIO3-Pad3)*%
X105960000Y-84860000D03*
%TO.P,U1,3.3,3V3_3.3*%
%TO.N,unconnected-(U1-3V3-Pad3.3)*%
X105960000Y-89940000D03*
%TO.P,U1,4,GPIO4_4*%
%TO.N,unconnected-(U1-GPIO4-Pad4)*%
X105960000Y-87400000D03*
%TO.P,U1,5,GPIO5_5*%
%TO.N,unconnected-(U1-GPIO5-Pad5)*%
X121200000Y-95020000D03*
%TO.P,U1,5V,5V_5V*%
%TO.N,Net-(D1-K)*%
X105960000Y-95020000D03*
%TO.P,U1,6,GPIO6_6*%
%TO.N,unconnected-(U1-GPIO6-Pad6)*%
X121200000Y-92480000D03*
%TO.P,U1,7,GPIO7_7*%
%TO.N,unconnected-(U1-GPIO7-Pad7)*%
X121200000Y-89940000D03*
%TO.P,U1,8,GPIO8_8*%
%TO.N,unconnected-(U1-GPIO8-Pad8)*%
X121200000Y-87400000D03*
%TO.P,U1,9,GPIO9_9*%
%TO.N,unconnected-(U1-GPIO9-Pad9)*%
X121200000Y-84860000D03*
%TO.P,U1,10,GPIO10_10*%
%TO.N,unconnected-(U1-GPIO10-Pad10)*%
X121200000Y-82320000D03*
%TO.P,U1,20,GPIO20_20*%
%TO.N,unconnected-(U1-GPIO20-Pad20)*%
X121200000Y-79780000D03*
%TO.P,U1,21,GPIO21_21*%
%TO.N,unconnected-(U1-GPIO21-Pad21)*%
X121200000Y-77240000D03*
%TO.P,U1,G,GND_G*%
%TO.N,GND*%
X105960000Y-92480000D03*
%TD*%
D15*
%TO.P,D1,1,K_1*%
%TO.N,Net-(D1-K)*%
X142560000Y-74000000D03*
D16*
%TO.P,D1,2,A_2*%
%TO.N,Net-(D1-A)*%
X132400000Y-74000000D03*
%TD*%
D11*
%TO.P,R1,1*%
%TO.N,Net-(Q1-B)*%
X98000000Y-85000000D03*
%TO.P,R1,2*%
%TO.N,Net-(U1-GPIO0)*%
X98000000Y-74840000D03*
%TD*%
D17*
%TO.P,J1,1,Pin_1_1*%
%TO.N,Net-(J1-Pin_1)*%
X87027500Y-81655000D03*
D13*
%TO.P,J1,2,Pin_2_2*%
%TO.N,Net-(J1-Pin_2)*%
X87027500Y-86735000D03*
%TD*%
D18*
%TO.P,K1,A1*%
%TO.N,Net-(D1-K)*%
X128600000Y-62612500D03*
D19*
%TO.P,K1,A2*%
%TO.N,Net-(D1-A)*%
X140600000Y-62612500D03*
D20*
%TO.P,K1,COM*%
%TO.N,Net-(J1-Pin_1)*%
X134600000Y-64612500D03*
D19*
%TO.P,K1,NC*%
%TO.N,unconnected-(K1-PadNC)*%
X128600000Y-50412500D03*
%TO.P,K1,NO*%
%TO.N,Net-(J2-Pin_1)*%
X140600000Y-50412500D03*
%TD*%
D21*
%TO.P,SW2,1,1_1*%
%TO.N,GND*%
X125950000Y-93770000D03*
X125950000Y-87270000D03*
%TO.P,SW2,2,2_2*%
%TO.N,Net-(U1-GPIO2)*%
X130450000Y-93770000D03*
X130450000Y-87270000D03*
%TD*%
D22*
%TO.P,U2,1,AC/L_1*%
%TO.N,Net-(J1-Pin_1)*%
X92312500Y-55700000D03*
D23*
%TO.P,U2,2,AC/N_2*%
%TO.N,Net-(J1-Pin_2)*%
X92312500Y-60700000D03*
%TO.P,U2,3,-Vout_3*%
%TO.N,GND*%
X121392500Y-50700000D03*
%TO.P,U2,4,+Vout_4*%
%TO.N,Net-(D1-K)*%
X121392500Y-65700000D03*
%TD*%
D24*
%TO.P,Q1,1,E_1*%
%TO.N,GND*%
X127130000Y-80080000D03*
D25*
%TO.P,Q1,2,B_2*%
%TO.N,Net-(Q1-B)*%
X128400000Y-80080000D03*
%TO.P,Q1,3,C_3*%
%TO.N,Net-(D1-A)*%
X129670000Y-80080000D03*
%TD*%
D26*
%TO.N,Net-(J1-Pin_2)*%
X132000000Y-54200000D03*
X112600000Y-54200000D03*
%TO.N,Net-(D1-A)*%
X136400000Y-69400000D03*
X134800000Y-70800000D03*
%TO.N,Net-(U1-GPIO2)*%
X118200000Y-82800000D03*
%TD*%
%TO.N,Net-(J1-Pin_2)*%
D27*
X132000000Y-54200000D02*
X144400000Y-54200000D01*
X98800000Y-54200000D02*
X112600000Y-54200000D01*
X146200000Y-56000000D02*
X146200000Y-76637500D01*
X144400000Y-54200000D02*
X146200000Y-56000000D01*
X98800000Y-54212500D02*
X98800000Y-54200000D01*
X146200000Y-76637500D02*
X141172500Y-81665000D01*
X92312500Y-60700000D02*
X98800000Y-54212500D01*
%TO.N,Net-(D1-A)*%
D28*
X135000000Y-70800000D02*
X136400000Y-69400000D01*
X134800000Y-70800000D02*
X135000000Y-70800000D01*
%TO.N,Net-(U1-GPIO2)*%
X130450000Y-93770000D02*
X130450000Y-87270000D01*
X117720000Y-82320000D02*
X118200000Y-82800000D01*
X105960000Y-82320000D02*
X117720000Y-82320000D01*
%TO.N,Net-(Q1-B)*%
X99114000Y-83886000D02*
X125544000Y-83886000D01*
X125544000Y-83886000D02*
X128400000Y-81030000D01*
X128400000Y-81030000D02*
X128400000Y-80080000D01*
X98000000Y-85000000D02*
X99114000Y-83886000D01*
%TD*%
%TA.AperFunction,Conductor*%
%TO.N,GND*%
G36*
X123943039Y-48819685D02*
G01*
X123988794Y-48872489D01*
X124000000Y-48924000D01*
X124000000Y-67600000D01*
X134075227Y-67600000D01*
X134142266Y-67619685D01*
X134188021Y-67672489D01*
X134199225Y-67724770D01*
X134183571Y-70244839D01*
X134163470Y-70311755D01*
X134162676Y-70312959D01*
X134090608Y-70420816D01*
X134090602Y-70420827D01*
X134030264Y-70566498D01*
X134030261Y-70566510D01*
X133999500Y-70721153D01*
X133999500Y-70878846D01*
X134030261Y-71033489D01*
X134030264Y-71033501D01*
X134090602Y-71179172D01*
X134090609Y-71179185D01*
X134155833Y-71276799D01*
X134176711Y-71343477D01*
X134176729Y-71346460D01*
X134163563Y-73466235D01*
X134143462Y-73533151D01*
X134090375Y-73578577D01*
X134021156Y-73588091D01*
X133957782Y-73558672D01*
X133921634Y-73503783D01*
X133909434Y-73466235D01*
X133883241Y-73385621D01*
X133768870Y-73161155D01*
X133749952Y-73135117D01*
X133620798Y-72957350D01*
X133620794Y-72957345D01*
X133442654Y-72779205D01*
X133442649Y-72779201D01*
X133238848Y-72631132D01*
X133238847Y-72631131D01*
X133238845Y-72631130D01*
X133168747Y-72595413D01*
X133014383Y-72516760D01*
X132774785Y-72438910D01*
X132525962Y-72399500D01*
X132274038Y-72399500D01*
X132149626Y-72419205D01*
X132025214Y-72438910D01*
X131785616Y-72516760D01*
X131561151Y-72631132D01*
X131357350Y-72779201D01*
X131357345Y-72779205D01*
X131179205Y-72957345D01*
X131179201Y-72957350D01*
X131031132Y-73161151D01*
X130916760Y-73385616D01*
X130850972Y-73588091D01*
X130838910Y-73625215D01*
X130799500Y-73874038D01*
X130799500Y-74125962D01*
X130804636Y-74158390D01*
X130838910Y-74374785D01*
X130916760Y-74614383D01*
X131031132Y-74838848D01*
X131179201Y-75042649D01*
X131179205Y-75042654D01*
X131357345Y-75220794D01*
X131357350Y-75220798D01*
X131520344Y-75339219D01*
X131561155Y-75368870D01*
X131704184Y-75441747D01*
X131785616Y-75483239D01*
X131785618Y-75483239D01*
X131785621Y-75483241D01*
X132025215Y-75561090D01*
X132274038Y-75600500D01*
X132274039Y-75600500D01*
X132525961Y-75600500D01*
X132525962Y-75600500D01*
X132774785Y-75561090D01*
X133014379Y-75483241D01*
X133238845Y-75368870D01*
X133442656Y-75220793D01*
X133620793Y-75042656D01*
X133768870Y-74838845D01*
X133883241Y-74614379D01*
X133914865Y-74517048D01*
X133954301Y-74459376D01*
X134018660Y-74432177D01*
X134087506Y-74444091D01*
X134138982Y-74491335D01*
X134156793Y-74556139D01*
X134000769Y-99676130D01*
X133980668Y-99743046D01*
X133927581Y-99788472D01*
X133876129Y-99799358D01*
X95523358Y-99600639D01*
X95456421Y-99580608D01*
X95410940Y-99527567D01*
X95400000Y-99476641D01*
X95400000Y-94283235D01*
X95419685Y-94216196D01*
X95472489Y-94170441D01*
X95541647Y-94160497D01*
X95562995Y-94165527D01*
X95697203Y-94209999D01*
X95799991Y-94220500D01*
X97000008Y-94220499D01*
X97102797Y-94209999D01*
X97269334Y-94154814D01*
X97418656Y-94062712D01*
X97542712Y-93938656D01*
X97634814Y-93789334D01*
X97689999Y-93622797D01*
X97700500Y-93520009D01*
X97700499Y-92817682D01*
X98600000Y-92817682D01*
X98600000Y-93022317D01*
X98632009Y-93224417D01*
X98695244Y-93419031D01*
X98788141Y-93601350D01*
X98788147Y-93601359D01*
X98820523Y-93645921D01*
X98820524Y-93645922D01*
X99500000Y-92966446D01*
X99500000Y-92972661D01*
X99527259Y-93074394D01*
X99579920Y-93165606D01*
X99654394Y-93240080D01*
X99745606Y-93292741D01*
X99847339Y-93320000D01*
X99853553Y-93320000D01*
X99174076Y-93999474D01*
X99218650Y-94031859D01*
X99400968Y-94124755D01*
X99595582Y-94187990D01*
X99797683Y-94220000D01*
X100002317Y-94220000D01*
X100204417Y-94187990D01*
X100399031Y-94124755D01*
X100581349Y-94031859D01*
X100625921Y-93999474D01*
X99946447Y-93320000D01*
X99952661Y-93320000D01*
X100054394Y-93292741D01*
X100145606Y-93240080D01*
X100220080Y-93165606D01*
X100272741Y-93074394D01*
X100300000Y-92972661D01*
X100300000Y-92966447D01*
X100979474Y-93645921D01*
X101011859Y-93601349D01*
X101104755Y-93419031D01*
X101167990Y-93224417D01*
X101200000Y-93022317D01*
X101200000Y-92817682D01*
X101167990Y-92615582D01*
X101104782Y-92421051D01*
X101104781Y-92421050D01*
X101104755Y-92420970D01*
X101011859Y-92238650D01*
X100979474Y-92194077D01*
X100979474Y-92194076D01*
X100300000Y-92873551D01*
X100300000Y-92867339D01*
X100272741Y-92765606D01*
X100220080Y-92674394D01*
X100145606Y-92599920D01*
X100054394Y-92547259D01*
X99952661Y-92520000D01*
X99946446Y-92520000D01*
X100625922Y-91840524D01*
X100625921Y-91840523D01*
X100581359Y-91808147D01*
X100581350Y-91808141D01*
X100399031Y-91715244D01*
X100204417Y-91652009D01*
X100002317Y-91620000D01*
X99797683Y-91620000D01*
X99595582Y-91652009D01*
X99400968Y-91715244D01*
X99218644Y-91808143D01*
X99174077Y-91840523D01*
X99174077Y-91840524D01*
X99853554Y-92520000D01*
X99847339Y-92520000D01*
X99745606Y-92547259D01*
X99654394Y-92599920D01*
X99579920Y-92674394D01*
X99527259Y-92765606D01*
X99500000Y-92867339D01*
X99500000Y-92873553D01*
X98820524Y-92194077D01*
X98820523Y-92194077D01*
X98788143Y-92238644D01*
X98695244Y-92420968D01*
X98632009Y-92615582D01*
X98600000Y-92817682D01*
X97700499Y-92817682D01*
X97700499Y-92319992D01*
X97689999Y-92217203D01*
X97634814Y-92050666D01*
X97542712Y-91901344D01*
X97418656Y-91777288D01*
X97269334Y-91685186D01*
X97102797Y-91630001D01*
X97102795Y-91630000D01*
X97000010Y-91619500D01*
X95799998Y-91619500D01*
X95799981Y-91619501D01*
X95697203Y-91630000D01*
X95697200Y-91630001D01*
X95563004Y-91674470D01*
X95493176Y-91676872D01*
X95433134Y-91641140D01*
X95401941Y-91578620D01*
X95400000Y-91556764D01*
X95400000Y-84897648D01*
X96699500Y-84897648D01*
X96699500Y-85102351D01*
X96731522Y-85304534D01*
X96794781Y-85499223D01*
X96887715Y-85681613D01*
X97008028Y-85847213D01*
X97152786Y-85991971D01*
X97283048Y-86086610D01*
X97318390Y-86112287D01*
X97418375Y-86163232D01*
X97500776Y-86205218D01*
X97500778Y-86205218D01*
X97500781Y-86205220D01*
X97590129Y-86234251D01*
X97695465Y-86268477D01*
X97796557Y-86284488D01*
X97897648Y-86300500D01*
X97897649Y-86300500D01*
X98102351Y-86300500D01*
X98102352Y-86300500D01*
X98304534Y-86268477D01*
X98499219Y-86205220D01*
X98681610Y-86112287D01*
X98774590Y-86044732D01*
X98847213Y-85991971D01*
X98847215Y-85991968D01*
X98847219Y-85991966D01*
X98991966Y-85847219D01*
X98991968Y-85847215D01*
X98991971Y-85847213D01*
X99058339Y-85755864D01*
X99112287Y-85681610D01*
X99205220Y-85499219D01*
X99268477Y-85304534D01*
X99300500Y-85102352D01*
X99300500Y-84897648D01*
X99268477Y-84695466D01*
X99263827Y-84681157D01*
X99263392Y-84665944D01*
X99258074Y-84651683D01*
X99262414Y-84631730D01*
X99261831Y-84611318D01*
X99269920Y-84597228D01*
X99272927Y-84583410D01*
X99294078Y-84555156D01*
X99326418Y-84522817D01*
X99387742Y-84489333D01*
X99414098Y-84486500D01*
X104684831Y-84486500D01*
X104751870Y-84506185D01*
X104797625Y-84558989D01*
X104807569Y-84628147D01*
X104807304Y-84629898D01*
X104785500Y-84767559D01*
X104785500Y-84952440D01*
X104814419Y-85135030D01*
X104871546Y-85310849D01*
X104871547Y-85310852D01*
X104955479Y-85475575D01*
X105064135Y-85625129D01*
X105064139Y-85625134D01*
X105194865Y-85755860D01*
X105194870Y-85755864D01*
X105265163Y-85806934D01*
X105344428Y-85864523D01*
X105452106Y-85919388D01*
X105509147Y-85948452D01*
X105509150Y-85948453D01*
X105594360Y-85976139D01*
X105684971Y-86005580D01*
X105695150Y-86007192D01*
X105697263Y-86007527D01*
X105760397Y-86037457D01*
X105797328Y-86096769D01*
X105796330Y-86166631D01*
X105757719Y-86224864D01*
X105697263Y-86252473D01*
X105684969Y-86254420D01*
X105509150Y-86311546D01*
X105509147Y-86311547D01*
X105344424Y-86395479D01*
X105194870Y-86504135D01*
X105194865Y-86504139D01*
X105064139Y-86634865D01*
X105064135Y-86634870D01*
X104955479Y-86784424D01*
X104871547Y-86949147D01*
X104871546Y-86949150D01*
X104814419Y-87124969D01*
X104785500Y-87307559D01*
X104785500Y-87492440D01*
X104814419Y-87675030D01*
X104871546Y-87850849D01*
X104871547Y-87850852D01*
X104955479Y-88015575D01*
X105064135Y-88165129D01*
X105064139Y-88165134D01*
X105194865Y-88295860D01*
X105194870Y-88295864D01*
X105262611Y-88345080D01*
X105344428Y-88404523D01*
X105452106Y-88459388D01*
X105509147Y-88488452D01*
X105509150Y-88488453D01*
X105597059Y-88517016D01*
X105684971Y-88545580D01*
X105695150Y-88547192D01*
X105697263Y-88547527D01*
X105760397Y-88577457D01*
X105797328Y-88636769D01*
X105796330Y-88706631D01*
X105757719Y-88764864D01*
X105697263Y-88792473D01*
X105684969Y-88794420D01*
X105509150Y-88851546D01*
X105509147Y-88851547D01*
X105344424Y-88935479D01*
X105194870Y-89044135D01*
X105194865Y-89044139D01*
X105064139Y-89174865D01*
X105064135Y-89174870D01*
X104955479Y-89324424D01*
X104871547Y-89489147D01*
X104871546Y-89489150D01*
X104814419Y-89664969D01*
X104785500Y-89847559D01*
X104785500Y-90032440D01*
X104814419Y-90215030D01*
X104871546Y-90390849D01*
X104871547Y-90390852D01*
X104955479Y-90555575D01*
X105064135Y-90705129D01*
X105064139Y-90705134D01*
X105194865Y-90835860D01*
X105194870Y-90835864D01*
X105325318Y-90930639D01*
X105344428Y-90944523D01*
X105452106Y-90999388D01*
X105509147Y-91028452D01*
X105509150Y-91028453D01*
X105684970Y-91085580D01*
X105698860Y-91087780D01*
X105761995Y-91117709D01*
X105798927Y-91177020D01*
X105797929Y-91246883D01*
X105759320Y-91305115D01*
X105698864Y-91332726D01*
X105685088Y-91334908D01*
X105509338Y-91392013D01*
X105344692Y-91475903D01*
X105344688Y-91475906D01*
X105324283Y-91490729D01*
X105324283Y-91490730D01*
X105895910Y-92062356D01*
X105797886Y-92088622D01*
X105702114Y-92143916D01*
X105623916Y-92222114D01*
X105568622Y-92317886D01*
X105542356Y-92415909D01*
X104970730Y-91844283D01*
X104970729Y-91844283D01*
X104955906Y-91864688D01*
X104955903Y-91864692D01*
X104872013Y-92029338D01*
X104814907Y-92205091D01*
X104786000Y-92387604D01*
X104786000Y-92572395D01*
X104814907Y-92754908D01*
X104872014Y-92930664D01*
X104955900Y-93095303D01*
X104955903Y-93095307D01*
X104970730Y-93115715D01*
X104970730Y-93115716D01*
X105542356Y-92544090D01*
X105568622Y-92642114D01*
X105623916Y-92737886D01*
X105702114Y-92816084D01*
X105797886Y-92871378D01*
X105895909Y-92897643D01*
X105324283Y-93469268D01*
X105324283Y-93469269D01*
X105344686Y-93484092D01*
X105509338Y-93567986D01*
X105685087Y-93625091D01*
X105698857Y-93627272D01*
X105761993Y-93657200D01*
X105798926Y-93716510D01*
X105797930Y-93786373D01*
X105759322Y-93844607D01*
X105698867Y-93872218D01*
X105684971Y-93874419D01*
X105509150Y-93931546D01*
X105509147Y-93931547D01*
X105344424Y-94015479D01*
X105194870Y-94124135D01*
X105194865Y-94124139D01*
X105064139Y-94254865D01*
X105064135Y-94254870D01*
X104955479Y-94404424D01*
X104871547Y-94569147D01*
X104871546Y-94569150D01*
X104814419Y-94744969D01*
X104785500Y-94927559D01*
X104785500Y-95112440D01*
X104814419Y-95295030D01*
X104871546Y-95470849D01*
X104871547Y-95470852D01*
X104955479Y-95635575D01*
X105064135Y-95785129D01*
X105064139Y-95785134D01*
X105194865Y-95915860D01*
X105194870Y-95915864D01*
X105325318Y-96010639D01*
X105344428Y-96024523D01*
X105452106Y-96079388D01*
X105509147Y-96108452D01*
X105509150Y-96108453D01*
X105684969Y-96165580D01*
X105867560Y-96194500D01*
X105867565Y-96194500D01*
X106052440Y-96194500D01*
X106235030Y-96165580D01*
X106410849Y-96108453D01*
X106410852Y-96108452D01*
X106575572Y-96024523D01*
X106725136Y-95915859D01*
X106855859Y-95785136D01*
X106964523Y-95635572D01*
X107048452Y-95470852D01*
X107105580Y-95295029D01*
X107115394Y-95233065D01*
X107134500Y-95112440D01*
X107134500Y-94927559D01*
X107105580Y-94744969D01*
X107048453Y-94569150D01*
X107048452Y-94569147D01*
X107019388Y-94512106D01*
X106964523Y-94404428D01*
X106875951Y-94282518D01*
X106855864Y-94254870D01*
X106855860Y-94254865D01*
X106725134Y-94124139D01*
X106725129Y-94124135D01*
X106575575Y-94015479D01*
X106575574Y-94015478D01*
X106575572Y-94015477D01*
X106510443Y-93982292D01*
X106410852Y-93931547D01*
X106410849Y-93931546D01*
X106235033Y-93874421D01*
X106235031Y-93874420D01*
X106235029Y-93874420D01*
X106222736Y-93872473D01*
X106221133Y-93872219D01*
X106158000Y-93842287D01*
X106121071Y-93782974D01*
X106122071Y-93713111D01*
X106160683Y-93654880D01*
X106221143Y-93627272D01*
X106234911Y-93625091D01*
X106410661Y-93567986D01*
X106575310Y-93484094D01*
X106595715Y-93469268D01*
X106595716Y-93469268D01*
X106024090Y-92897642D01*
X106122114Y-92871378D01*
X106217886Y-92816084D01*
X106296084Y-92737886D01*
X106351378Y-92642114D01*
X106377643Y-92544090D01*
X106949268Y-93115716D01*
X106949268Y-93115715D01*
X106964094Y-93095310D01*
X107047986Y-92930661D01*
X107105092Y-92754908D01*
X107134000Y-92572395D01*
X107134000Y-92387604D01*
X107105092Y-92205091D01*
X107047986Y-92029338D01*
X106964092Y-91864686D01*
X106949269Y-91844283D01*
X106377642Y-92415909D01*
X106351378Y-92317886D01*
X106296084Y-92222114D01*
X106217886Y-92143916D01*
X106122114Y-92088622D01*
X106024090Y-92062356D01*
X106595716Y-91490730D01*
X106575307Y-91475903D01*
X106575303Y-91475900D01*
X106410664Y-91392014D01*
X106234910Y-91334907D01*
X106221136Y-91332726D01*
X106158002Y-91302796D01*
X106121072Y-91243484D01*
X106122070Y-91173621D01*
X106160681Y-91115389D01*
X106221137Y-91087780D01*
X106235029Y-91085580D01*
X106410852Y-91028452D01*
X106575572Y-90944523D01*
X106725136Y-90835859D01*
X106855859Y-90705136D01*
X106964523Y-90555572D01*
X107048452Y-90390852D01*
X107105580Y-90215029D01*
X107134500Y-90032440D01*
X107134500Y-89847559D01*
X107105580Y-89664969D01*
X107048453Y-89489150D01*
X107048452Y-89489147D01*
X107019388Y-89432106D01*
X106964523Y-89324428D01*
X106950639Y-89305318D01*
X106855864Y-89174870D01*
X106855860Y-89174865D01*
X106725134Y-89044139D01*
X106725129Y-89044135D01*
X106575575Y-88935479D01*
X106575574Y-88935478D01*
X106575572Y-88935477D01*
X106522799Y-88908588D01*
X106410852Y-88851547D01*
X106410849Y-88851546D01*
X106235030Y-88794420D01*
X106222737Y-88792473D01*
X106159602Y-88762544D01*
X106122671Y-88703232D01*
X106123669Y-88633370D01*
X106162279Y-88575137D01*
X106222737Y-88547527D01*
X106224508Y-88547246D01*
X106235029Y-88545580D01*
X106410852Y-88488452D01*
X106575572Y-88404523D01*
X106725136Y-88295859D01*
X106855859Y-88165136D01*
X106964523Y-88015572D01*
X107048452Y-87850852D01*
X107105580Y-87675029D01*
X107114079Y-87621368D01*
X107134500Y-87492440D01*
X107134500Y-87307559D01*
X107105580Y-87124969D01*
X107048453Y-86949150D01*
X107048452Y-86949147D01*
X107019388Y-86892106D01*
X106964523Y-86784428D01*
X106898967Y-86694197D01*
X106855864Y-86634870D01*
X106855860Y-86634865D01*
X106725134Y-86504139D01*
X106725129Y-86504135D01*
X106575575Y-86395479D01*
X106575574Y-86395478D01*
X106575572Y-86395477D01*
X106522799Y-86368588D01*
X106410852Y-86311547D01*
X106410849Y-86311546D01*
X106235030Y-86254420D01*
X106222737Y-86252473D01*
X106159602Y-86222544D01*
X106122671Y-86163232D01*
X106123669Y-86093370D01*
X106162279Y-86035137D01*
X106222737Y-86007527D01*
X106224508Y-86007246D01*
X106235029Y-86005580D01*
X106410852Y-85948452D01*
X106575572Y-85864523D01*
X106725136Y-85755859D01*
X106855859Y-85625136D01*
X106964523Y-85475572D01*
X107048452Y-85310852D01*
X107105580Y-85135029D01*
X107110756Y-85102351D01*
X107134500Y-84952440D01*
X107134500Y-84767559D01*
X107112696Y-84629898D01*
X107121650Y-84560605D01*
X107166646Y-84507153D01*
X107233398Y-84486513D01*
X107235169Y-84486500D01*
X119924831Y-84486500D01*
X119991870Y-84506185D01*
X120037625Y-84558989D01*
X120047569Y-84628147D01*
X120047304Y-84629898D01*
X120025500Y-84767559D01*
X120025500Y-84952440D01*
X120054419Y-85135030D01*
X120111546Y-85310849D01*
X120111547Y-85310852D01*
X120195479Y-85475575D01*
X120304135Y-85625129D01*
X120304139Y-85625134D01*
X120434865Y-85755860D01*
X120434870Y-85755864D01*
X120505163Y-85806934D01*
X120584428Y-85864523D01*
X120692106Y-85919388D01*
X120749147Y-85948452D01*
X120749150Y-85948453D01*
X120834360Y-85976139D01*
X120924971Y-86005580D01*
X120935150Y-86007192D01*
X120937263Y-86007527D01*
X121000397Y-86037457D01*
X121037328Y-86096769D01*
X121036330Y-86166631D01*
X120997719Y-86224864D01*
X120937263Y-86252473D01*
X120924969Y-86254420D01*
X120749150Y-86311546D01*
X120749147Y-86311547D01*
X120584424Y-86395479D01*
X120434870Y-86504135D01*
X120434865Y-86504139D01*
X120304139Y-86634865D01*
X120304135Y-86634870D01*
X120195479Y-86784424D01*
X120111547Y-86949147D01*
X120111546Y-86949150D01*
X120054419Y-87124969D01*
X120025500Y-87307559D01*
X120025500Y-87492440D01*
X120054419Y-87675030D01*
X120111546Y-87850849D01*
X120111547Y-87850852D01*
X120195479Y-88015575D01*
X120304135Y-88165129D01*
X120304139Y-88165134D01*
X120434865Y-88295860D01*
X120434870Y-88295864D01*
X120502611Y-88345080D01*
X120584428Y-88404523D01*
X120692106Y-88459388D01*
X120749147Y-88488452D01*
X120749150Y-88488453D01*
X120837059Y-88517016D01*
X120924971Y-88545580D01*
X120935150Y-88547192D01*
X120937263Y-88547527D01*
X121000397Y-88577457D01*
X121037328Y-88636769D01*
X121036330Y-88706631D01*
X120997719Y-88764864D01*
X120937263Y-88792473D01*
X120924969Y-88794420D01*
X120749150Y-88851546D01*
X120749147Y-88851547D01*
X120584424Y-88935479D01*
X120434870Y-89044135D01*
X120434865Y-89044139D01*
X120304139Y-89174865D01*
X120304135Y-89174870D01*
X120195479Y-89324424D01*
X120111547Y-89489147D01*
X120111546Y-89489150D01*
X120054419Y-89664969D01*
X120025500Y-89847559D01*
X120025500Y-90032440D01*
X120054419Y-90215030D01*
X120111546Y-90390849D01*
X120111547Y-90390852D01*
X120195479Y-90555575D01*
X120304135Y-90705129D01*
X120304139Y-90705134D01*
X120434865Y-90835860D01*
X120434870Y-90835864D01*
X120565318Y-90930639D01*
X120584428Y-90944523D01*
X120692106Y-90999388D01*
X120749147Y-91028452D01*
X120749150Y-91028453D01*
X120837059Y-91057016D01*
X120924971Y-91085580D01*
X120935150Y-91087192D01*
X120937263Y-91087527D01*
X121000397Y-91117457D01*
X121037328Y-91176769D01*
X121036330Y-91246631D01*
X120997719Y-91304864D01*
X120937263Y-91332473D01*
X120924969Y-91334420D01*
X120749150Y-91391546D01*
X120749147Y-91391547D01*
X120584424Y-91475479D01*
X120434870Y-91584135D01*
X120434865Y-91584139D01*
X120304139Y-91714865D01*
X120304135Y-91714870D01*
X120195479Y-91864424D01*
X120111547Y-92029147D01*
X120111546Y-92029150D01*
X120054419Y-92204969D01*
X120025500Y-92387559D01*
X120025500Y-92572440D01*
X120054419Y-92755030D01*
X120111546Y-92930849D01*
X120111547Y-92930852D01*
X120158152Y-93022317D01*
X120184686Y-93074394D01*
X120195479Y-93095575D01*
X120304135Y-93245129D01*
X120304139Y-93245134D01*
X120434865Y-93375860D01*
X120434870Y-93375864D01*
X120563431Y-93469268D01*
X120584428Y-93484523D01*
X120686615Y-93536590D01*
X120749147Y-93568452D01*
X120749150Y-93568453D01*
X120837059Y-93597016D01*
X120924971Y-93625580D01*
X120935150Y-93627192D01*
X120937263Y-93627527D01*
X121000397Y-93657457D01*
X121037328Y-93716769D01*
X121036330Y-93786631D01*
X120997719Y-93844864D01*
X120937263Y-93872473D01*
X120924969Y-93874420D01*
X120749150Y-93931546D01*
X120749147Y-93931547D01*
X120584424Y-94015479D01*
X120434870Y-94124135D01*
X120434865Y-94124139D01*
X120304139Y-94254865D01*
X120304135Y-94254870D01*
X120195479Y-94404424D01*
X120111547Y-94569147D01*
X120111546Y-94569150D01*
X120054419Y-94744969D01*
X120025500Y-94927559D01*
X120025500Y-95112440D01*
X120054419Y-95295030D01*
X120111546Y-95470849D01*
X120111547Y-95470852D01*
X120195479Y-95635575D01*
X120304135Y-95785129D01*
X120304139Y-95785134D01*
X120434865Y-95915860D01*
X120434870Y-95915864D01*
X120565318Y-96010639D01*
X120584428Y-96024523D01*
X120692106Y-96079388D01*
X120749147Y-96108452D01*
X120749150Y-96108453D01*
X120924969Y-96165580D01*
X121107560Y-96194500D01*
X121107565Y-96194500D01*
X121292440Y-96194500D01*
X121475030Y-96165580D01*
X121650849Y-96108453D01*
X121650852Y-96108452D01*
X121815572Y-96024523D01*
X121965136Y-95915859D01*
X122095859Y-95785136D01*
X122204523Y-95635572D01*
X122288452Y-95470852D01*
X122345580Y-95295029D01*
X122355394Y-95233065D01*
X122374500Y-95112440D01*
X122374500Y-94927559D01*
X122345580Y-94744969D01*
X122288453Y-94569150D01*
X122288452Y-94569147D01*
X122259388Y-94512106D01*
X122204523Y-94404428D01*
X122115951Y-94282518D01*
X122095864Y-94254870D01*
X122095860Y-94254865D01*
X121965134Y-94124139D01*
X121965129Y-94124135D01*
X121815575Y-94015479D01*
X121815574Y-94015478D01*
X121815572Y-94015477D01*
X121750443Y-93982292D01*
X121650852Y-93931547D01*
X121650849Y-93931546D01*
X121475030Y-93874420D01*
X121462737Y-93872473D01*
X121399602Y-93842544D01*
X121362671Y-93783232D01*
X121363669Y-93713370D01*
X121402279Y-93655137D01*
X121409264Y-93651947D01*
X124450000Y-93651947D01*
X124450000Y-93888052D01*
X124486934Y-94121247D01*
X124559897Y-94345802D01*
X124667087Y-94556174D01*
X124727338Y-94639104D01*
X124727340Y-94639105D01*
X125426212Y-93940233D01*
X125437482Y-93982292D01*
X125509890Y-94107708D01*
X125612292Y-94210110D01*
X125737708Y-94282518D01*
X125779765Y-94293787D01*
X125080893Y-94992658D01*
X125163828Y-95052914D01*
X125374197Y-95160102D01*
X125598752Y-95233065D01*
X125598751Y-95233065D01*
X125831948Y-95270000D01*
X126068052Y-95270000D01*
X126301247Y-95233065D01*
X126525802Y-95160102D01*
X126736163Y-95052918D01*
X126736169Y-95052914D01*
X126819104Y-94992658D01*
X126819105Y-94992658D01*
X126120233Y-94293787D01*
X126162292Y-94282518D01*
X126287708Y-94210110D01*
X126390110Y-94107708D01*
X126462518Y-93982292D01*
X126473787Y-93940233D01*
X127172658Y-94639105D01*
X127172658Y-94639104D01*
X127232914Y-94556169D01*
X127232918Y-94556163D01*
X127340102Y-94345802D01*
X127413065Y-94121247D01*
X127450000Y-93888052D01*
X127450000Y-93651947D01*
X127413065Y-93418752D01*
X127340102Y-93194197D01*
X127232914Y-92983828D01*
X127172658Y-92900894D01*
X127172658Y-92900893D01*
X126473787Y-93599765D01*
X126462518Y-93557708D01*
X126390110Y-93432292D01*
X126287708Y-93329890D01*
X126162292Y-93257482D01*
X126120234Y-93246212D01*
X126819105Y-92547340D01*
X126819104Y-92547338D01*
X126736174Y-92487087D01*
X126525802Y-92379897D01*
X126301247Y-92306934D01*
X126301248Y-92306934D01*
X126068052Y-92270000D01*
X125831948Y-92270000D01*
X125598752Y-92306934D01*
X125374197Y-92379897D01*
X125163830Y-92487084D01*
X125080894Y-92547340D01*
X125779766Y-93246212D01*
X125737708Y-93257482D01*
X125612292Y-93329890D01*
X125509890Y-93432292D01*
X125437482Y-93557708D01*
X125426212Y-93599766D01*
X124727340Y-92900894D01*
X124667084Y-92983830D01*
X124559897Y-93194197D01*
X124486934Y-93418752D01*
X124450000Y-93651947D01*
X121409264Y-93651947D01*
X121462737Y-93627527D01*
X121464508Y-93627246D01*
X121475029Y-93625580D01*
X121650852Y-93568452D01*
X121815572Y-93484523D01*
X121965136Y-93375859D01*
X122095859Y-93245136D01*
X122204523Y-93095572D01*
X122288452Y-92930852D01*
X122309089Y-92867339D01*
X122345580Y-92755029D01*
X122374063Y-92575201D01*
X122374500Y-92572439D01*
X122374500Y-92387559D01*
X122345580Y-92204969D01*
X122288453Y-92029150D01*
X122288452Y-92029147D01*
X122249592Y-91952881D01*
X122204523Y-91864428D01*
X122163630Y-91808143D01*
X122095864Y-91714870D01*
X122095860Y-91714865D01*
X121965134Y-91584139D01*
X121965129Y-91584135D01*
X121815575Y-91475479D01*
X121815574Y-91475478D01*
X121815572Y-91475477D01*
X121762799Y-91448588D01*
X121650852Y-91391547D01*
X121650849Y-91391546D01*
X121475030Y-91334420D01*
X121462737Y-91332473D01*
X121399602Y-91302544D01*
X121362671Y-91243232D01*
X121363669Y-91173370D01*
X121402279Y-91115137D01*
X121462737Y-91087527D01*
X121464508Y-91087246D01*
X121475029Y-91085580D01*
X121650852Y-91028452D01*
X121815572Y-90944523D01*
X121965136Y-90835859D01*
X122095859Y-90705136D01*
X122204523Y-90555572D01*
X122288452Y-90390852D01*
X122345580Y-90215029D01*
X122374500Y-90032440D01*
X122374500Y-89847559D01*
X122345580Y-89664969D01*
X122288453Y-89489150D01*
X122288452Y-89489147D01*
X122259388Y-89432106D01*
X122204523Y-89324428D01*
X122190639Y-89305318D01*
X122095864Y-89174870D01*
X122095860Y-89174865D01*
X121965134Y-89044139D01*
X121965129Y-89044135D01*
X121815575Y-88935479D01*
X121815574Y-88935478D01*
X121815572Y-88935477D01*
X121762799Y-88908588D01*
X121650852Y-88851547D01*
X121650849Y-88851546D01*
X121475030Y-88794420D01*
X121462737Y-88792473D01*
X121399602Y-88762544D01*
X121362671Y-88703232D01*
X121363669Y-88633370D01*
X121402279Y-88575137D01*
X121462737Y-88547527D01*
X121464508Y-88547246D01*
X121475029Y-88545580D01*
X121650852Y-88488452D01*
X121815572Y-88404523D01*
X121897389Y-88345080D01*
X121897391Y-88345079D01*
X121965129Y-88295864D01*
X121965127Y-88295864D01*
X121965136Y-88295859D01*
X122095859Y-88165136D01*
X122204523Y-88015572D01*
X122288452Y-87850852D01*
X122345580Y-87675029D01*
X122354079Y-87621368D01*
X122374500Y-87492440D01*
X122374500Y-87307559D01*
X122352154Y-87166473D01*
X122349853Y-87151947D01*
X124450000Y-87151947D01*
X124450000Y-87388052D01*
X124486934Y-87621247D01*
X124559897Y-87845802D01*
X124667087Y-88056174D01*
X124727338Y-88139104D01*
X124727340Y-88139105D01*
X125426212Y-87440233D01*
X125437482Y-87482292D01*
X125509890Y-87607708D01*
X125612292Y-87710110D01*
X125737708Y-87782518D01*
X125779765Y-87793787D01*
X125080893Y-88492658D01*
X125163828Y-88552914D01*
X125374197Y-88660102D01*
X125598752Y-88733065D01*
X125598751Y-88733065D01*
X125831948Y-88770000D01*
X126068052Y-88770000D01*
X126301247Y-88733065D01*
X126525802Y-88660102D01*
X126736163Y-88552918D01*
X126736169Y-88552914D01*
X126819104Y-88492658D01*
X126819105Y-88492658D01*
X126120233Y-87793787D01*
X126162292Y-87782518D01*
X126287708Y-87710110D01*
X126390110Y-87607708D01*
X126462518Y-87482292D01*
X126473787Y-87440233D01*
X127172658Y-88139105D01*
X127172658Y-88139104D01*
X127232914Y-88056169D01*
X127232918Y-88056163D01*
X127340102Y-87845802D01*
X127413065Y-87621247D01*
X127450000Y-87388052D01*
X127450000Y-87151947D01*
X127449993Y-87151902D01*
X128949500Y-87151902D01*
X128949500Y-87388097D01*
X128986446Y-87621368D01*
X129059433Y-87845996D01*
X129145837Y-88015572D01*
X129166657Y-88056433D01*
X129305483Y-88247510D01*
X129472490Y-88414517D01*
X129574254Y-88488453D01*
X129663568Y-88553344D01*
X129738177Y-88591358D01*
X129781794Y-88613582D01*
X129832590Y-88661556D01*
X129849500Y-88724067D01*
X129849500Y-92315931D01*
X129829815Y-92382970D01*
X129781796Y-92426415D01*
X129663568Y-92486655D01*
X129545497Y-92572440D01*
X129472490Y-92625483D01*
X129472488Y-92625485D01*
X129472487Y-92625485D01*
X129305485Y-92792487D01*
X129305485Y-92792488D01*
X129305483Y-92792490D01*
X129288341Y-92816084D01*
X129166657Y-92983566D01*
X129059433Y-93194003D01*
X128986446Y-93418631D01*
X128949500Y-93651902D01*
X128949500Y-93888097D01*
X128986446Y-94121368D01*
X129059433Y-94345996D01*
X129166519Y-94556163D01*
X129166657Y-94556433D01*
X129305483Y-94747510D01*
X129472490Y-94914517D01*
X129663567Y-95053343D01*
X129762991Y-95104002D01*
X129874003Y-95160566D01*
X129874005Y-95160566D01*
X129874008Y-95160568D01*
X129994412Y-95199689D01*
X130098631Y-95233553D01*
X130331903Y-95270500D01*
X130331908Y-95270500D01*
X130568097Y-95270500D01*
X130801368Y-95233553D01*
X130802870Y-95233065D01*
X131025992Y-95160568D01*
X131236433Y-95053343D01*
X131427510Y-94914517D01*
X131594517Y-94747510D01*
X131733343Y-94556433D01*
X131840568Y-94345992D01*
X131913553Y-94121368D01*
X131922843Y-94062712D01*
X131950500Y-93888097D01*
X131950500Y-93651902D01*
X131913553Y-93418631D01*
X131861192Y-93257482D01*
X131840568Y-93194008D01*
X131840566Y-93194005D01*
X131840566Y-93194003D01*
X131733477Y-92983830D01*
X131733343Y-92983567D01*
X131594517Y-92792490D01*
X131427510Y-92625483D01*
X131282326Y-92520000D01*
X131236431Y-92486655D01*
X131118204Y-92426415D01*
X131067409Y-92378441D01*
X131050500Y-92315931D01*
X131050500Y-88724067D01*
X131070185Y-88657028D01*
X131118205Y-88613582D01*
X131236433Y-88553343D01*
X131427510Y-88414517D01*
X131594517Y-88247510D01*
X131733343Y-88056433D01*
X131840568Y-87845992D01*
X131913553Y-87621368D01*
X131933974Y-87492435D01*
X131950500Y-87388097D01*
X131950500Y-87151902D01*
X131913553Y-86918631D01*
X131840566Y-86694003D01*
X131733477Y-86483830D01*
X131733343Y-86483567D01*
X131594517Y-86292490D01*
X131427510Y-86125483D01*
X131236433Y-85986657D01*
X131215790Y-85976139D01*
X131025996Y-85879433D01*
X130801368Y-85806446D01*
X130568097Y-85769500D01*
X130568092Y-85769500D01*
X130331908Y-85769500D01*
X130331903Y-85769500D01*
X130098631Y-85806446D01*
X129874003Y-85879433D01*
X129663566Y-85986657D01*
X129609774Y-86025740D01*
X129472490Y-86125483D01*
X129472488Y-86125485D01*
X129472487Y-86125485D01*
X129305485Y-86292487D01*
X129305485Y-86292488D01*
X129305483Y-86292490D01*
X129291637Y-86311548D01*
X129166657Y-86483566D01*
X129059433Y-86694003D01*
X128986446Y-86918631D01*
X128949500Y-87151902D01*
X127449993Y-87151902D01*
X127413065Y-86918752D01*
X127340102Y-86694197D01*
X127232914Y-86483828D01*
X127172658Y-86400894D01*
X127172658Y-86400893D01*
X126473787Y-87099765D01*
X126462518Y-87057708D01*
X126390110Y-86932292D01*
X126287708Y-86829890D01*
X126162292Y-86757482D01*
X126120234Y-86746212D01*
X126819105Y-86047340D01*
X126819104Y-86047338D01*
X126736174Y-85987087D01*
X126525802Y-85879897D01*
X126301247Y-85806934D01*
X126301248Y-85806934D01*
X126068052Y-85770000D01*
X125831948Y-85770000D01*
X125598752Y-85806934D01*
X125374197Y-85879897D01*
X125163830Y-85987084D01*
X125080894Y-86047340D01*
X125779766Y-86746212D01*
X125737708Y-86757482D01*
X125612292Y-86829890D01*
X125509890Y-86932292D01*
X125437482Y-87057708D01*
X125426212Y-87099766D01*
X124727340Y-86400894D01*
X124667084Y-86483830D01*
X124559897Y-86694197D01*
X124486934Y-86918752D01*
X124450000Y-87151947D01*
X122349853Y-87151947D01*
X122348735Y-87144893D01*
X122345580Y-87124971D01*
X122288452Y-86949148D01*
X122288452Y-86949147D01*
X122259388Y-86892106D01*
X122204523Y-86784428D01*
X122138967Y-86694197D01*
X122095864Y-86634870D01*
X122095860Y-86634865D01*
X121965134Y-86504139D01*
X121965129Y-86504135D01*
X121815575Y-86395479D01*
X121815574Y-86395478D01*
X121815572Y-86395477D01*
X121762799Y-86368588D01*
X121650852Y-86311547D01*
X121650849Y-86311546D01*
X121475030Y-86254420D01*
X121462737Y-86252473D01*
X121455409Y-86248999D01*
X121447299Y-86249006D01*
X121424297Y-86234251D01*
X121399602Y-86222544D01*
X121395314Y-86215658D01*
X121388489Y-86211280D01*
X121377116Y-86186431D01*
X121362671Y-86163232D01*
X121362786Y-86155122D01*
X121359412Y-86147749D01*
X121363278Y-86120696D01*
X121363669Y-86093370D01*
X121368150Y-86086610D01*
X121369298Y-86078582D01*
X121387178Y-86057912D01*
X121402279Y-86035137D01*
X121410876Y-86030517D01*
X121415009Y-86025740D01*
X121431426Y-86019475D01*
X121447102Y-86011052D01*
X121454805Y-86008783D01*
X121475029Y-86005580D01*
X121565626Y-85976143D01*
X121565641Y-85976139D01*
X121650849Y-85948453D01*
X121650852Y-85948452D01*
X121815572Y-85864523D01*
X121965136Y-85755859D01*
X122095859Y-85625136D01*
X122204523Y-85475572D01*
X122288452Y-85310852D01*
X122345580Y-85135029D01*
X122350756Y-85102351D01*
X122374500Y-84952440D01*
X122374500Y-84767559D01*
X122352696Y-84629898D01*
X122361650Y-84560605D01*
X122406646Y-84507153D01*
X122473398Y-84486513D01*
X122475169Y-84486500D01*
X125457331Y-84486500D01*
X125457347Y-84486501D01*
X125464943Y-84486501D01*
X125623054Y-84486501D01*
X125623057Y-84486501D01*
X125775785Y-84445577D01*
X125838881Y-84409148D01*
X125912716Y-84366520D01*
X126024520Y-84254716D01*
X126024520Y-84254714D01*
X126034724Y-84244511D01*
X126034728Y-84244506D01*
X128758506Y-81520728D01*
X128758511Y-81520724D01*
X128768714Y-81510520D01*
X128768716Y-81510520D01*
X128880520Y-81398716D01*
X128942657Y-81291091D01*
X128959577Y-81261785D01*
X128962955Y-81249174D01*
X128968309Y-81238286D01*
X128984054Y-81221127D01*
X128996176Y-81201240D01*
X129007235Y-81195867D01*
X129015550Y-81186807D01*
X129038076Y-81180884D01*
X129059022Y-81170709D01*
X129071229Y-81172168D01*
X129083123Y-81169041D01*
X129105274Y-81176237D01*
X129128397Y-81179001D01*
X129148478Y-81189888D01*
X129184244Y-81213786D01*
X129184245Y-81213786D01*
X129184246Y-81213787D01*
X129226523Y-81231298D01*
X129370873Y-81291091D01*
X129534288Y-81323596D01*
X129568992Y-81330499D01*
X129568996Y-81330500D01*
X129568997Y-81330500D01*
X129771004Y-81330500D01*
X129771005Y-81330499D01*
X129969127Y-81291091D01*
X130155756Y-81213786D01*
X130323718Y-81101558D01*
X130466558Y-80958718D01*
X130578786Y-80790756D01*
X130656091Y-80604127D01*
X130695500Y-80406003D01*
X130695500Y-79753997D01*
X130656091Y-79555873D01*
X130578786Y-79369244D01*
X130578784Y-79369241D01*
X130578782Y-79369237D01*
X130466558Y-79201281D01*
X130323718Y-79058441D01*
X130155762Y-78946217D01*
X130155752Y-78946212D01*
X129969127Y-78868909D01*
X129969119Y-78868907D01*
X129771007Y-78829500D01*
X129771003Y-78829500D01*
X129568997Y-78829500D01*
X129568992Y-78829500D01*
X129370880Y-78868907D01*
X129370872Y-78868909D01*
X129184244Y-78946213D01*
X129103891Y-78999904D01*
X129037213Y-79020782D01*
X128969833Y-79002297D01*
X128966109Y-78999904D01*
X128885755Y-78946213D01*
X128699127Y-78868909D01*
X128699119Y-78868907D01*
X128501007Y-78829500D01*
X128501003Y-78829500D01*
X128298997Y-78829500D01*
X128298992Y-78829500D01*
X128100880Y-78868907D01*
X128100868Y-78868910D01*
X128019661Y-78902547D01*
X127950191Y-78910016D01*
X127905140Y-78890405D01*
X127904872Y-78890897D01*
X127899374Y-78887894D01*
X127897895Y-78887251D01*
X127897086Y-78886645D01*
X127762379Y-78836403D01*
X127762372Y-78836401D01*
X127702844Y-78830000D01*
X127380000Y-78830000D01*
X127380000Y-79714134D01*
X127379968Y-79716953D01*
X127379722Y-79727740D01*
X127374500Y-79753997D01*
X127374500Y-79794170D01*
X127360255Y-79779925D01*
X127274745Y-79730556D01*
X127179370Y-79705000D01*
X127080630Y-79705000D01*
X126985255Y-79730556D01*
X126899745Y-79779925D01*
X126880000Y-79799670D01*
X126880000Y-78830000D01*
X126557155Y-78830000D01*
X126497627Y-78836401D01*
X126497620Y-78836403D01*
X126362913Y-78886645D01*
X126362906Y-78886649D01*
X126247812Y-78972809D01*
X126247809Y-78972812D01*
X126161649Y-79087906D01*
X126161645Y-79087913D01*
X126111403Y-79222620D01*
X126111401Y-79222627D01*
X126105000Y-79282155D01*
X126105000Y-79830000D01*
X126849670Y-79830000D01*
X126829925Y-79849745D01*
X126780556Y-79935255D01*
X126755000Y-80030630D01*
X126755000Y-80129370D01*
X126780556Y-80224745D01*
X126829925Y-80310255D01*
X126849670Y-80330000D01*
X126105000Y-80330000D01*
X126105000Y-80877844D01*
X126111401Y-80937372D01*
X126111403Y-80937379D01*
X126161645Y-81072086D01*
X126161649Y-81072093D01*
X126247809Y-81187187D01*
X126247812Y-81187190D01*
X126362906Y-81273350D01*
X126362913Y-81273354D01*
X126497620Y-81323596D01*
X126497627Y-81323598D01*
X126557155Y-81329999D01*
X126557172Y-81330000D01*
X126951402Y-81330000D01*
X127018441Y-81349685D01*
X127064196Y-81402489D01*
X127074140Y-81471647D01*
X127045115Y-81535203D01*
X127039083Y-81541681D01*
X125331584Y-83249181D01*
X125270261Y-83282666D01*
X125243903Y-83285500D01*
X122193650Y-83285500D01*
X122126611Y-83265815D01*
X122080856Y-83213011D01*
X122070912Y-83143853D01*
X122093332Y-83088615D01*
X122178336Y-82971615D01*
X122204523Y-82935572D01*
X122288452Y-82770852D01*
X122288453Y-82770849D01*
X122345580Y-82595030D01*
X122374500Y-82412440D01*
X122374500Y-82227559D01*
X122345580Y-82044969D01*
X122288453Y-81869150D01*
X122288452Y-81869147D01*
X122247797Y-81789358D01*
X122204523Y-81704428D01*
X122178336Y-81668385D01*
X122095864Y-81554870D01*
X122095860Y-81554865D01*
X121965134Y-81424139D01*
X121965129Y-81424135D01*
X121815575Y-81315479D01*
X121815574Y-81315478D01*
X121815572Y-81315477D01*
X121732901Y-81273354D01*
X121650852Y-81231547D01*
X121650849Y-81231546D01*
X121475030Y-81174420D01*
X121462737Y-81172473D01*
X121399602Y-81142544D01*
X121362671Y-81083232D01*
X121363669Y-81013370D01*
X121402279Y-80955137D01*
X121462737Y-80927527D01*
X121464508Y-80927246D01*
X121475029Y-80925580D01*
X121650852Y-80868452D01*
X121815572Y-80784523D01*
X121965136Y-80675859D01*
X122095859Y-80545136D01*
X122204523Y-80395572D01*
X122288452Y-80230852D01*
X122321425Y-80129370D01*
X122345580Y-80055030D01*
X122374500Y-79872440D01*
X122374500Y-79687559D01*
X122345580Y-79504969D01*
X122301478Y-79369237D01*
X122288452Y-79329148D01*
X122204523Y-79164428D01*
X122148927Y-79087906D01*
X122095864Y-79014870D01*
X122095860Y-79014865D01*
X121965134Y-78884139D01*
X121965129Y-78884135D01*
X121815575Y-78775479D01*
X121815574Y-78775478D01*
X121815572Y-78775477D01*
X121762799Y-78748588D01*
X121650852Y-78691547D01*
X121650849Y-78691546D01*
X121475030Y-78634420D01*
X121462737Y-78632473D01*
X121399602Y-78602544D01*
X121362671Y-78543232D01*
X121363669Y-78473370D01*
X121402279Y-78415137D01*
X121462737Y-78387527D01*
X121464508Y-78387246D01*
X121475029Y-78385580D01*
X121650852Y-78328452D01*
X121815572Y-78244523D01*
X121965136Y-78135859D01*
X122095859Y-78005136D01*
X122204523Y-77855572D01*
X122288452Y-77690852D01*
X122345580Y-77515029D01*
X122374500Y-77332440D01*
X122374500Y-77147559D01*
X122345580Y-76964969D01*
X122288453Y-76789150D01*
X122288452Y-76789147D01*
X122259388Y-76732106D01*
X122204523Y-76624428D01*
X122190639Y-76605318D01*
X122095864Y-76474870D01*
X122095860Y-76474865D01*
X121965134Y-76344139D01*
X121965129Y-76344135D01*
X121815575Y-76235479D01*
X121815574Y-76235478D01*
X121815572Y-76235477D01*
X121762799Y-76208588D01*
X121650852Y-76151547D01*
X121650849Y-76151546D01*
X121475030Y-76094419D01*
X121292440Y-76065500D01*
X121292435Y-76065500D01*
X121107565Y-76065500D01*
X121107560Y-76065500D01*
X120924969Y-76094419D01*
X120749150Y-76151546D01*
X120749147Y-76151547D01*
X120584424Y-76235479D01*
X120434870Y-76344135D01*
X120434865Y-76344139D01*
X120304139Y-76474865D01*
X120304135Y-76474870D01*
X120195479Y-76624424D01*
X120111547Y-76789147D01*
X120111546Y-76789150D01*
X120054419Y-76964969D01*
X120025500Y-77147559D01*
X120025500Y-77332440D01*
X120054419Y-77515030D01*
X120111546Y-77690849D01*
X120111547Y-77690852D01*
X120195479Y-77855575D01*
X120304135Y-78005129D01*
X120304139Y-78005134D01*
X120434865Y-78135860D01*
X120434870Y-78135864D01*
X120565318Y-78230639D01*
X120584428Y-78244523D01*
X120692106Y-78299388D01*
X120749147Y-78328452D01*
X120749150Y-78328453D01*
X120837059Y-78357016D01*
X120924971Y-78385580D01*
X120935150Y-78387192D01*
X120937263Y-78387527D01*
X121000397Y-78417457D01*
X121037328Y-78476769D01*
X121036330Y-78546631D01*
X120997719Y-78604864D01*
X120937263Y-78632473D01*
X120924969Y-78634420D01*
X120749150Y-78691546D01*
X120749147Y-78691547D01*
X120584424Y-78775479D01*
X120434870Y-78884135D01*
X120434865Y-78884139D01*
X120304139Y-79014865D01*
X120304135Y-79014870D01*
X120195479Y-79164424D01*
X120111547Y-79329147D01*
X120111546Y-79329150D01*
X120054419Y-79504969D01*
X120025500Y-79687559D01*
X120025500Y-79872440D01*
X120054419Y-80055030D01*
X120111546Y-80230849D01*
X120111547Y-80230852D01*
X120195479Y-80395575D01*
X120304135Y-80545129D01*
X120304139Y-80545134D01*
X120434865Y-80675860D01*
X120434870Y-80675864D01*
X120565318Y-80770639D01*
X120584428Y-80784523D01*
X120692106Y-80839388D01*
X120749147Y-80868452D01*
X120749150Y-80868453D01*
X120837059Y-80897016D01*
X120924971Y-80925580D01*
X120935150Y-80927192D01*
X120937263Y-80927527D01*
X121000397Y-80957457D01*
X121037328Y-81016769D01*
X121036330Y-81086631D01*
X120997719Y-81144864D01*
X120937263Y-81172473D01*
X120924969Y-81174420D01*
X120749150Y-81231546D01*
X120749147Y-81231547D01*
X120584424Y-81315479D01*
X120434870Y-81424135D01*
X120434865Y-81424139D01*
X120304139Y-81554865D01*
X120304135Y-81554870D01*
X120195479Y-81704424D01*
X120111547Y-81869147D01*
X120111546Y-81869150D01*
X120054419Y-82044969D01*
X120025500Y-82227559D01*
X120025500Y-82412440D01*
X120054419Y-82595030D01*
X120111546Y-82770849D01*
X120111547Y-82770852D01*
X120166572Y-82878842D01*
X120192102Y-82928949D01*
X120195479Y-82935575D01*
X120306668Y-83088615D01*
X120330148Y-83154421D01*
X120314322Y-83222475D01*
X120264216Y-83271170D01*
X120206350Y-83285500D01*
X119050933Y-83285500D01*
X118983894Y-83265815D01*
X118938139Y-83213011D01*
X118928195Y-83143853D01*
X118936372Y-83114047D01*
X118969737Y-83033497D01*
X119000500Y-82878842D01*
X119000500Y-82721158D01*
X119000500Y-82721155D01*
X119000499Y-82721153D01*
X118969738Y-82566510D01*
X118969737Y-82566503D01*
X118969735Y-82566498D01*
X118909397Y-82420827D01*
X118909390Y-82420814D01*
X118821789Y-82289711D01*
X118821786Y-82289707D01*
X118710292Y-82178213D01*
X118710288Y-82178210D01*
X118579185Y-82090609D01*
X118579172Y-82090602D01*
X118433501Y-82030264D01*
X118433491Y-82030261D01*
X118278151Y-81999362D01*
X118261394Y-81990596D01*
X118242916Y-81986577D01*
X118217880Y-81967834D01*
X118216241Y-81966977D01*
X118214662Y-81965426D01*
X118088717Y-81839481D01*
X118088716Y-81839480D01*
X118001904Y-81789360D01*
X118001904Y-81789359D01*
X118001900Y-81789358D01*
X117951785Y-81760423D01*
X117799057Y-81719499D01*
X117640943Y-81719499D01*
X117633347Y-81719499D01*
X117633331Y-81719500D01*
X107038655Y-81719500D01*
X106971616Y-81699815D01*
X106938337Y-81668385D01*
X106855864Y-81554869D01*
X106725134Y-81424139D01*
X106725129Y-81424135D01*
X106575575Y-81315479D01*
X106575574Y-81315478D01*
X106575572Y-81315477D01*
X106492901Y-81273354D01*
X106410852Y-81231547D01*
X106410849Y-81231546D01*
X106235030Y-81174420D01*
X106222737Y-81172473D01*
X106159602Y-81142544D01*
X106122671Y-81083232D01*
X106123669Y-81013370D01*
X106162279Y-80955137D01*
X106222737Y-80927527D01*
X106224508Y-80927246D01*
X106235029Y-80925580D01*
X106410852Y-80868452D01*
X106575572Y-80784523D01*
X106725136Y-80675859D01*
X106855859Y-80545136D01*
X106964523Y-80395572D01*
X107048452Y-80230852D01*
X107081425Y-80129370D01*
X107105580Y-80055030D01*
X107134500Y-79872440D01*
X107134500Y-79687559D01*
X107105580Y-79504969D01*
X107048453Y-79329150D01*
X107048452Y-79329147D01*
X107019388Y-79272106D01*
X106964523Y-79164428D01*
X106908927Y-79087906D01*
X106855864Y-79014870D01*
X106855860Y-79014865D01*
X106725134Y-78884139D01*
X106725129Y-78884135D01*
X106575575Y-78775479D01*
X106575574Y-78775478D01*
X106575572Y-78775477D01*
X106522799Y-78748588D01*
X106410852Y-78691547D01*
X106410849Y-78691546D01*
X106235030Y-78634420D01*
X106222737Y-78632473D01*
X106159602Y-78602544D01*
X106122671Y-78543232D01*
X106123669Y-78473370D01*
X106162279Y-78415137D01*
X106222737Y-78387527D01*
X106224508Y-78387246D01*
X106235029Y-78385580D01*
X106410852Y-78328452D01*
X106575572Y-78244523D01*
X106725136Y-78135859D01*
X106855859Y-78005136D01*
X106964523Y-77855572D01*
X107048452Y-77690852D01*
X107105580Y-77515029D01*
X107134500Y-77332440D01*
X107134500Y-77147559D01*
X107105580Y-76964969D01*
X107048453Y-76789150D01*
X107048452Y-76789147D01*
X107019388Y-76732106D01*
X106964523Y-76624428D01*
X106950639Y-76605318D01*
X106855864Y-76474870D01*
X106855860Y-76474865D01*
X106725134Y-76344139D01*
X106725129Y-76344135D01*
X106575575Y-76235479D01*
X106575574Y-76235478D01*
X106575572Y-76235477D01*
X106522799Y-76208588D01*
X106410852Y-76151547D01*
X106410849Y-76151546D01*
X106235030Y-76094419D01*
X106052440Y-76065500D01*
X106052435Y-76065500D01*
X105867565Y-76065500D01*
X105867560Y-76065500D01*
X105684969Y-76094419D01*
X105509150Y-76151546D01*
X105509147Y-76151547D01*
X105344424Y-76235479D01*
X105194870Y-76344135D01*
X105194865Y-76344139D01*
X105064139Y-76474865D01*
X105064135Y-76474870D01*
X104955479Y-76624424D01*
X104871547Y-76789147D01*
X104871546Y-76789150D01*
X104814419Y-76964969D01*
X104785500Y-77147559D01*
X104785500Y-77332440D01*
X104814419Y-77515030D01*
X104871546Y-77690849D01*
X104871547Y-77690852D01*
X104955479Y-77855575D01*
X105064135Y-78005129D01*
X105064139Y-78005134D01*
X105194865Y-78135860D01*
X105194870Y-78135864D01*
X105325318Y-78230639D01*
X105344428Y-78244523D01*
X105452106Y-78299388D01*
X105509147Y-78328452D01*
X105509150Y-78328453D01*
X105597059Y-78357016D01*
X105684971Y-78385580D01*
X105695150Y-78387192D01*
X105697263Y-78387527D01*
X105760397Y-78417457D01*
X105797328Y-78476769D01*
X105796330Y-78546631D01*
X105757719Y-78604864D01*
X105697263Y-78632473D01*
X105684969Y-78634420D01*
X105509150Y-78691546D01*
X105509147Y-78691547D01*
X105344424Y-78775479D01*
X105194870Y-78884135D01*
X105194865Y-78884139D01*
X105064139Y-79014865D01*
X105064135Y-79014870D01*
X104955479Y-79164424D01*
X104871547Y-79329147D01*
X104871546Y-79329150D01*
X104814419Y-79504969D01*
X104785500Y-79687559D01*
X104785500Y-79872440D01*
X104814419Y-80055030D01*
X104871546Y-80230849D01*
X104871547Y-80230852D01*
X104955479Y-80395575D01*
X105064135Y-80545129D01*
X105064139Y-80545134D01*
X105194865Y-80675860D01*
X105194870Y-80675864D01*
X105325318Y-80770639D01*
X105344428Y-80784523D01*
X105452106Y-80839388D01*
X105509147Y-80868452D01*
X105509150Y-80868453D01*
X105597059Y-80897016D01*
X105684971Y-80925580D01*
X105695150Y-80927192D01*
X105697263Y-80927527D01*
X105760397Y-80957457D01*
X105797328Y-81016769D01*
X105796330Y-81086631D01*
X105757719Y-81144864D01*
X105697263Y-81172473D01*
X105684969Y-81174420D01*
X105509150Y-81231546D01*
X105509147Y-81231547D01*
X105344424Y-81315479D01*
X105194870Y-81424135D01*
X105194865Y-81424139D01*
X105064139Y-81554865D01*
X105064135Y-81554870D01*
X104955479Y-81704424D01*
X104871547Y-81869147D01*
X104871546Y-81869150D01*
X104814419Y-82044969D01*
X104785500Y-82227559D01*
X104785500Y-82412440D01*
X104814419Y-82595030D01*
X104871546Y-82770849D01*
X104871547Y-82770852D01*
X104926572Y-82878842D01*
X104952102Y-82928949D01*
X104955479Y-82935575D01*
X105066668Y-83088615D01*
X105090148Y-83154421D01*
X105074322Y-83222475D01*
X105024216Y-83271170D01*
X104966350Y-83285500D01*
X99200669Y-83285500D01*
X99200653Y-83285499D01*
X99193057Y-83285499D01*
X99034943Y-83285499D01*
X98927587Y-83314265D01*
X98882210Y-83326424D01*
X98882209Y-83326425D01*
X98832096Y-83355359D01*
X98832095Y-83355360D01*
X98788689Y-83380420D01*
X98745285Y-83405479D01*
X98745282Y-83405481D01*
X98633478Y-83517286D01*
X98444842Y-83705921D01*
X98383519Y-83739406D01*
X98318848Y-83736173D01*
X98304534Y-83731522D01*
X98129995Y-83703878D01*
X98102352Y-83699500D01*
X97897648Y-83699500D01*
X97873329Y-83703351D01*
X97695465Y-83731522D01*
X97500776Y-83794781D01*
X97318386Y-83887715D01*
X97152786Y-84008028D01*
X97008028Y-84152786D01*
X96887715Y-84318386D01*
X96794781Y-84500776D01*
X96731522Y-84695465D01*
X96699500Y-84897648D01*
X95400000Y-84897648D01*
X95400000Y-74737648D01*
X96699500Y-74737648D01*
X96699500Y-74942351D01*
X96731522Y-75144534D01*
X96794781Y-75339223D01*
X96887715Y-75521613D01*
X97008028Y-75687213D01*
X97152786Y-75831971D01*
X97307749Y-75944556D01*
X97318390Y-75952287D01*
X97434607Y-76011503D01*
X97500776Y-76045218D01*
X97500778Y-76045218D01*
X97500781Y-76045220D01*
X97605137Y-76079127D01*
X97695465Y-76108477D01*
X97796557Y-76124488D01*
X97897648Y-76140500D01*
X97897649Y-76140500D01*
X98102351Y-76140500D01*
X98102352Y-76140500D01*
X98304534Y-76108477D01*
X98499219Y-76045220D01*
X98681610Y-75952287D01*
X98774590Y-75884732D01*
X98847213Y-75831971D01*
X98847215Y-75831968D01*
X98847219Y-75831966D01*
X98991966Y-75687219D01*
X98991968Y-75687215D01*
X98991971Y-75687213D01*
X99044732Y-75614590D01*
X99112287Y-75521610D01*
X99205220Y-75339219D01*
X99268477Y-75144534D01*
X99300500Y-74942352D01*
X99300500Y-74737648D01*
X99268477Y-74535465D01*
X99234916Y-74432177D01*
X99205220Y-74340781D01*
X99205218Y-74340778D01*
X99205218Y-74340776D01*
X99171503Y-74274607D01*
X99112287Y-74158390D01*
X99088726Y-74125961D01*
X98991971Y-73992786D01*
X98847213Y-73848028D01*
X98681613Y-73727715D01*
X98681612Y-73727714D01*
X98681610Y-73727713D01*
X98624653Y-73698691D01*
X98499223Y-73634781D01*
X98304534Y-73571522D01*
X98129995Y-73543878D01*
X98102352Y-73539500D01*
X97897648Y-73539500D01*
X97873329Y-73543351D01*
X97695465Y-73571522D01*
X97500776Y-73634781D01*
X97318386Y-73727715D01*
X97152786Y-73848028D01*
X97008028Y-73992786D01*
X96887715Y-74158386D01*
X96794781Y-74340776D01*
X96731522Y-74535465D01*
X96699500Y-74737648D01*
X95400000Y-74737648D01*
X95400000Y-68121898D01*
X95419685Y-68054859D01*
X95472489Y-68009104D01*
X95521878Y-67997916D01*
X118800000Y-67600000D01*
X118830634Y-66880109D01*
X118891757Y-65443713D01*
X120042000Y-65443713D01*
X120042000Y-65956286D01*
X120075253Y-66166239D01*
X120140944Y-66368414D01*
X120237451Y-66557820D01*
X120362390Y-66729786D01*
X120512713Y-66880109D01*
X120684679Y-67005048D01*
X120684681Y-67005049D01*
X120684684Y-67005051D01*
X120874088Y-67101557D01*
X121076257Y-67167246D01*
X121286213Y-67200500D01*
X121286214Y-67200500D01*
X121498786Y-67200500D01*
X121498787Y-67200500D01*
X121708743Y-67167246D01*
X121910912Y-67101557D01*
X122100316Y-67005051D01*
X122122289Y-66989086D01*
X122272286Y-66880109D01*
X122272288Y-66880106D01*
X122272292Y-66880104D01*
X122422604Y-66729792D01*
X122422606Y-66729788D01*
X122422609Y-66729786D01*
X122547548Y-66557820D01*
X122547547Y-66557820D01*
X122547551Y-66557816D01*
X122644057Y-66368412D01*
X122709746Y-66166243D01*
X122743000Y-65956287D01*
X122743000Y-65443713D01*
X122709746Y-65233757D01*
X122644057Y-65031588D01*
X122547551Y-64842184D01*
X122547549Y-64842181D01*
X122547548Y-64842179D01*
X122422609Y-64670213D01*
X122272286Y-64519890D01*
X122100320Y-64394951D01*
X121910914Y-64298444D01*
X121910913Y-64298443D01*
X121910912Y-64298443D01*
X121708743Y-64232754D01*
X121708741Y-64232753D01*
X121708740Y-64232753D01*
X121547457Y-64207208D01*
X121498787Y-64199500D01*
X121286213Y-64199500D01*
X121237542Y-64207208D01*
X121076260Y-64232753D01*
X120874085Y-64298444D01*
X120684679Y-64394951D01*
X120512713Y-64519890D01*
X120362390Y-64670213D01*
X120237451Y-64842179D01*
X120140944Y-65031585D01*
X120075253Y-65233760D01*
X120042000Y-65443713D01*
X118891757Y-65443713D01*
X118892189Y-65433569D01*
X119510921Y-50893366D01*
X119530053Y-50443753D01*
X120042500Y-50443753D01*
X120042500Y-50450000D01*
X120959488Y-50450000D01*
X120926575Y-50507007D01*
X120892500Y-50634174D01*
X120892500Y-50765826D01*
X120926575Y-50892993D01*
X120959488Y-50950000D01*
X120042500Y-50950000D01*
X120042500Y-50956246D01*
X120075742Y-51166127D01*
X120075742Y-51166130D01*
X120141404Y-51368217D01*
X120237879Y-51557557D01*
X120362772Y-51729459D01*
X120362776Y-51729464D01*
X120513035Y-51879723D01*
X120513040Y-51879727D01*
X120684942Y-52004620D01*
X120874282Y-52101095D01*
X121076371Y-52166757D01*
X121142500Y-52177231D01*
X121142500Y-51133012D01*
X121199507Y-51165925D01*
X121326674Y-51200000D01*
X121458326Y-51200000D01*
X121585493Y-51165925D01*
X121642500Y-51133012D01*
X121642500Y-52177230D01*
X121708626Y-52166757D01*
X121708629Y-52166757D01*
X121910717Y-52101095D01*
X122100057Y-52004620D01*
X122271959Y-51879727D01*
X122271964Y-51879723D01*
X122422223Y-51729464D01*
X122422227Y-51729459D01*
X122547120Y-51557557D01*
X122643595Y-51368217D01*
X122709257Y-51166130D01*
X122709257Y-51166127D01*
X122742500Y-50956246D01*
X122742500Y-50950000D01*
X121825512Y-50950000D01*
X121858425Y-50892993D01*
X121892500Y-50765826D01*
X121892500Y-50634174D01*
X121858425Y-50507007D01*
X121825512Y-50450000D01*
X122742500Y-50450000D01*
X122742500Y-50443753D01*
X122709257Y-50233872D01*
X122709257Y-50233869D01*
X122643595Y-50031782D01*
X122547120Y-49842442D01*
X122422227Y-49670540D01*
X122422223Y-49670535D01*
X122271964Y-49520276D01*
X122271959Y-49520272D01*
X122100057Y-49395379D01*
X121910715Y-49298903D01*
X121708624Y-49233241D01*
X121642500Y-49222768D01*
X121642500Y-50266988D01*
X121585493Y-50234075D01*
X121458326Y-50200000D01*
X121326674Y-50200000D01*
X121199507Y-50234075D01*
X121142500Y-50266988D01*
X121142500Y-49222768D01*
X121142499Y-49222768D01*
X121076375Y-49233241D01*
X120874284Y-49298903D01*
X120684942Y-49395379D01*
X120513040Y-49520272D01*
X120513035Y-49520276D01*
X120362776Y-49670535D01*
X120362772Y-49670540D01*
X120237879Y-49842442D01*
X120141404Y-50031782D01*
X120075742Y-50233869D01*
X120075742Y-50233872D01*
X120042500Y-50443753D01*
X119530053Y-50443753D01*
X119530485Y-50433609D01*
X119594948Y-48918728D01*
X119617465Y-48852586D01*
X119672167Y-48809118D01*
X119718836Y-48800000D01*
X123876000Y-48800000D01*
X123943039Y-48819685D01*
G37*
%TD.AperFunction*%
%TD*%
M02*
