M48
; DRILL file KiCad 10.0.3 date 2026-07-31T12:23:54
; FORMAT={-:-/ absolute / metric / decimal}
; #@! TF.CreationDate,2026-07-31T12:23:54-05:00
; #@! TF.GenerationSoftware,Kicad,Pcbnew,10.0.3
; #@! TF.FileFunction,Plated,1,2,PTH
FMAT,2
METRIC
; #@! TA.AperFunction,Plated,PTH,ViaDrill
T1C0.300
; #@! TA.AperFunction,Plated,PTH,ComponentDrill
T2C0.750
; #@! TA.AperFunction,Plated,PTH,ComponentDrill
T3C0.800
; #@! TA.AperFunction,Plated,PTH,ComponentDrill
T4C0.840
; #@! TA.AperFunction,Plated,PTH,ComponentDrill
T5C1.000
; #@! TA.AperFunction,Plated,PTH,ComponentDrill
T6C1.100
; #@! TA.AperFunction,Plated,PTH,ComponentDrill
T7C1.290
; #@! TA.AperFunction,Plated,PTH,ComponentDrill
T8C1.300
; #@! TA.AperFunction,Plated,PTH,ComponentDrill
T9C1.320
%
G90
G05
T1
X112.6Y-54.2
X118.2Y-82.8
X132.0Y-54.2
X134.8Y-70.8
X136.4Y-69.4
T2
X127.13Y-80.08
X128.4Y-80.08
X129.67Y-80.08
T3
X96.4Y-92.92
X98.0Y-74.84
X98.0Y-85.0
X99.9Y-92.92
T4
X105.96Y-77.24
X105.96Y-79.78
X105.96Y-82.32
X105.96Y-84.86
X105.96Y-87.4
X105.96Y-89.94
X105.96Y-92.48
X105.96Y-95.02
X121.2Y-77.24
X121.2Y-79.78
X121.2Y-82.32
X121.2Y-84.86
X121.2Y-87.4
X121.2Y-89.94
X121.2Y-92.48
X121.2Y-95.02
T5
X92.312Y-55.7
X92.312Y-60.7
X121.392Y-50.7
X121.392Y-65.7
T6
X125.95Y-87.27
X125.95Y-93.77
X130.45Y-87.27
X130.45Y-93.77
X132.4Y-74.0
X142.56Y-74.0
T7
X134.6Y-64.612
T8
X87.027Y-81.655
X87.027Y-86.735
X141.172Y-81.665
X141.172Y-86.745
T9
X128.6Y-50.412
X128.6Y-62.612
X140.6Y-50.412
X140.6Y-62.612
M30
