%TF.GenerationSoftware,KiCad,Pcbnew,10.0.4*%
%TF.CreationDate,2026-07-13T18:28:34-05:00*%
%TF.ProjectId,smartPlug-PCB,736d6172-7450-46c7-9567-2d5043422e6b,rev?*%
%TF.SameCoordinates,Original*%
%TF.FileFunction,Soldermask,Top*%
%TF.FilePolarity,Negative*%
%FSLAX46Y46*%
G04 Gerber Fmt 4.6, Leading zero omitted, Abs format (unit mm)*
G04 Created by KiCad (PCBNEW 10.0.4) date 2026-07-13 18:28:34*
%MOMM*%
%LPD*%
G01*
G04 APERTURE LIST*
G04 Aperture macros list*
%AMRoundRect*
0 Rectangle with rounded corners*
0 $1 Rounding radius*
0 $2 $3 $4 $5 $6 $7 $8 $9 X,Y pos of 4 corners*
0 Add a 4 corners polygon primitive as box body*
4,1,4,$2,$3,$4,$5,$6,$7,$8,$9,$2,$3,0*
0 Add four circle primitives for the rounded corners*
1,1,$1+$1,$2,$3*
1,1,$1+$1,$4,$5*
1,1,$1+$1,$6,$7*
1,1,$1+$1,$8,$9*
0 Add four rect primitives between the rounded corners*
20,1,$1+$1,$2,$3,$4,$5,0*
20,1,$1+$1,$4,$5,$6,$7,0*
20,1,$1+$1,$6,$7,$8,$9,0*
20,1,$1+$1,$8,$9,$2,$3,0*%
G04 Aperture macros list end*
%ADD10C,3.200000*%
%ADD11RoundRect,0.250000X1.050000X-1.050000X1.050000X1.050000X-1.050000X1.050000X-1.050000X-1.050000X0*%
%ADD12C,2.600000*%
%ADD13R,1.800000X1.800000*%
%ADD14C,1.800000*%
%ADD15C,1.552000*%
%ADD16RoundRect,0.249999X0.850001X0.850001X-0.850001X0.850001X-0.850001X-0.850001X0.850001X-0.850001X0*%
%ADD17C,2.200000*%
%ADD18C,1.600000*%
%ADD19RoundRect,0.250000X-1.050000X1.050000X-1.050000X-1.050000X1.050000X-1.050000X1.050000X1.050000X0*%
%ADD20RoundRect,0.102000X-0.990000X-0.990000X0.990000X-0.990000X0.990000X0.990000X-0.990000X0.990000X0*%
%ADD21C,2.184000*%
%ADD22C,2.139000*%
%ADD23C,2.000000*%
%ADD24RoundRect,0.250000X-0.600000X-0.750000X0.600000X-0.750000X0.600000X0.750000X-0.600000X0.750000X0*%
%ADD25O,1.700000X2.000000*%
%ADD26R,1.050000X1.500000*%
%ADD27O,1.050000X1.500000*%
G04 APERTURE END LIST*
D10*
%TO.C,REF\u002A\u002A*%
X156000000Y-100000000D03*
%TD*%
%TO.C,REF\u002A\u002A*%
X74500000Y-100000000D03*
%TD*%
%TO.C,REF\u002A\u002A*%
X156500000Y-38500000D03*
%TD*%
%TO.C,REF\u002A\u002A*%
X74500000Y-38500000D03*
%TD*%
D11*
%TO.C,J2*%
X148672500Y-86045000D03*
D12*
X148672500Y-80965000D03*
%TD*%
D13*
%TO.C,D2*%
X130995000Y-88000000D03*
D14*
X133535000Y-88000000D03*
%TD*%
D15*
%TO.C,U1*%
X101380000Y-74880000D03*
X98840000Y-74880000D03*
X96300000Y-74880000D03*
X93760000Y-74880000D03*
X88680000Y-74880000D03*
X91220000Y-74880000D03*
X83600000Y-90120000D03*
X83600000Y-74880000D03*
X86140000Y-90120000D03*
X88680000Y-90120000D03*
X91220000Y-90120000D03*
X93760000Y-90120000D03*
X96300000Y-90120000D03*
X98840000Y-90120000D03*
X101380000Y-90120000D03*
X86140000Y-74880000D03*
%TD*%
D16*
%TO.C,D1*%
X150000000Y-68000000D03*
D17*
X139840000Y-68000000D03*
%TD*%
D18*
%TO.C,R1*%
X114690000Y-76000000D03*
X124850000Y-76000000D03*
%TD*%
D19*
%TO.C,J1*%
X81827500Y-54955000D03*
D12*
X81827500Y-60035000D03*
%TD*%
D20*
%TO.C,K1*%
X137900000Y-48000000D03*
D21*
X137900000Y-60000000D03*
D22*
X135900000Y-54000000D03*
D21*
X150100000Y-48000000D03*
X150100000Y-60000000D03*
%TD*%
D23*
%TO.C,SW2*%
X116270000Y-85500000D03*
X122770000Y-85500000D03*
X116270000Y-90000000D03*
X122770000Y-90000000D03*
%TD*%
D24*
%TO.C,U2*%
X95212500Y-55000000D03*
D25*
X95212500Y-60000000D03*
X124292500Y-50000000D03*
X124292500Y-65000000D03*
%TD*%
D26*
%TO.C,Q1*%
X131230000Y-76360000D03*
D27*
X132500000Y-76360000D03*
X133770000Y-76360000D03*
%TD*%
M02*
